<?xml version="1.0" encoding="UTF-8" standalone="no"?>
<!-- Generator: Adobe Illustrator 26.0.1, SVG Export Plug-In . SVG Version: 6.00 Build 0)  -->

<svg
   version="1.1"
   x="0px"
   y="0px"
   width="217"
   height="175"
   viewBox="0 0 217 175"
   enable-background="new 0 0 217 175"
   xml:space="preserve"
   id="svg65"
   xmlns="http://www.w3.org/2000/svg"
   xmlns:svg="http://www.w3.org/2000/svg"><defs
   id="defs65" />
<g
   id="Hintergrund"
   style="display:none">
	<rect
   fill="#ffffff"
   width="217"
   height="175"
   id="rect1"
   x="0"
   y="0" />
</g>
<g
   id="Foerderzusatz">
	<g
   id="g15">
		<path
   d="m 28.585,22.346 c -0.221,-0.147 -0.704,-0.326 -1.281,-0.326 -1.28,0 -2.53,0.84 -2.53,3.013 0,2.1 0.977,3.139 2.362,3.139 0.504,0 0.903,-0.095 1.208,-0.21 v -2.089 l -0.641,-0.147 c -0.105,-0.021 -0.147,-0.053 -0.147,-0.115 0,-0.095 0.073,-0.221 0.116,-0.315 h 2.393 c 0,0 0.011,0.063 0.011,0.116 0,0.168 -0.095,0.294 -0.356,0.368 l -0.242,0.062 v 2.194 c -0.283,0.252 -1.06,0.819 -2.604,0.819 -1.848,0 -3.296,-1.144 -3.296,-3.695 0,-2.729 2.026,-3.8 3.769,-3.8 1.113,0 1.67,0.315 2.016,0.473 0.031,0.314 0.063,0.966 0.063,1.05 0,0.325 -0.095,0.535 -0.368,0.535 -0.084,0 -0.168,-0.021 -0.241,-0.042 z"
   id="path1" />
		<path
   d="m 31.861,26.209 c 0.011,1.302 0.631,1.911 1.533,1.911 0.672,0 1.05,-0.263 1.312,-0.483 0.104,0.084 0.157,0.262 0.157,0.357 0,0.263 -0.692,0.861 -1.858,0.861 -1.291,0 -2.257,-0.735 -2.257,-2.562 0,-1.827 1.103,-2.761 2.299,-2.761 1.187,0 1.785,0.725 1.785,1.774 0,0.273 -0.053,0.641 -0.126,0.903 z m 1.838,-0.556 c 0.021,-0.095 0.053,-0.273 0.053,-0.452 0,-0.578 -0.211,-1.071 -0.819,-1.071 -0.619,0 -0.987,0.493 -1.061,1.522 h 1.827 z"
   id="path2" />
		<path
   d="m 38.676,24.235 h -1.281 v 3.926 l 0.714,0.137 c 0.104,0.021 0.147,0.052 0.147,0.136 0,0.105 -0.074,0.262 -0.105,0.294 h -2.498 c 0,0 -0.011,-0.063 -0.011,-0.094 0,-0.189 0.126,-0.273 0.325,-0.347 l 0.357,-0.126 v -3.926 h -0.777 c 0,0 -0.011,-0.063 -0.011,-0.094 0,-0.2 0.126,-0.305 0.325,-0.357 l 0.463,-0.126 v -0.104 c 0,-1.69 1.028,-2.509 1.932,-2.509 0.524,0 0.734,0.231 0.734,0.556 0,0.263 -0.157,0.41 -0.314,0.494 -0.095,-0.105 -0.368,-0.304 -0.693,-0.304 -0.451,0 -0.609,0.252 -0.609,0.871 0,0.325 0.021,0.997 0.021,0.997 h 1.396 z"
   id="path3" />
		<path
   d="m 44.082,26.146 c 0,1.816 -1.27,2.708 -2.551,2.708 -1.312,0 -2.394,-0.84 -2.394,-2.604 0,-1.774 1.26,-2.719 2.593,-2.719 1.313,0.001 2.352,0.788 2.352,2.615 z m -3.411,-3.338 c -0.315,0 -0.567,-0.231 -0.567,-0.567 0,-0.357 0.252,-0.588 0.567,-0.588 0.325,0 0.566,0.231 0.566,0.588 0,0.336 -0.241,0.567 -0.566,0.567 z m -0.409,3.38 c 0,1.407 0.566,2.037 1.344,2.037 0.776,0 1.354,-0.609 1.354,-2.016 0,-1.407 -0.577,-2.058 -1.354,-2.058 -0.778,0 -1.344,0.62 -1.344,2.037 z m 2.308,-3.38 c -0.336,0 -0.577,-0.231 -0.577,-0.567 0,-0.357 0.241,-0.588 0.577,-0.588 0.315,0 0.557,0.231 0.557,0.588 0,0.336 -0.241,0.567 -0.557,0.567 z"
   id="path4" />
		<path
   d="m 46.519,24.498 h 0.031 c 0.221,-0.356 0.609,-0.966 1.291,-0.966 0.494,0 0.725,0.231 0.725,0.557 0,0.231 -0.104,0.431 -0.188,0.535 -0.084,-0.042 -0.347,-0.157 -0.704,-0.157 -0.577,0 -0.871,0.231 -1.092,0.535 v 3.16 l 0.756,0.137 c 0.105,0.021 0.147,0.052 0.147,0.136 0,0.105 -0.084,0.262 -0.104,0.294 H 44.84 c 0,0 -0.011,-0.063 -0.011,-0.094 0,-0.189 0.126,-0.273 0.325,-0.347 l 0.368,-0.126 v -3.884 l -0.745,-0.116 c 0,0 -0.011,-0.062 -0.011,-0.104 0,-0.179 0.136,-0.305 0.388,-0.326 l 1.428,-0.136 z"
   id="path5" />
		<path
   d="m 53.469,28.141 0.767,0.105 c 0,0 0.011,0.042 0.011,0.084 0,0.189 -0.137,0.315 -0.389,0.336 l -1.386,0.126 V 28.109 H 52.44 c -0.231,0.326 -0.672,0.746 -1.491,0.746 -1.028,0 -1.994,-0.662 -1.994,-2.488 0,-1.953 1.365,-2.835 2.709,-2.835 0.304,0 0.566,0.053 0.745,0.095 V 21.79 l -0.745,-0.105 c 0,0 -0.011,-0.073 -0.011,-0.115 0,-0.179 0.136,-0.305 0.388,-0.325 l 1.428,-0.137 z m -1.06,-3.664 c -0.157,-0.147 -0.441,-0.315 -0.882,-0.315 -0.851,0 -1.48,0.609 -1.48,1.995 0,1.354 0.588,1.9 1.291,1.9 0.609,0 0.935,-0.284 1.071,-0.441 z"
   id="path6" />
		<path
   d="m 55.959,26.209 c 0.01,1.302 0.629,1.911 1.532,1.911 0.672,0 1.05,-0.263 1.312,-0.483 0.104,0.084 0.157,0.262 0.157,0.357 0,0.263 -0.693,0.861 -1.858,0.861 -1.291,0 -2.257,-0.735 -2.257,-2.562 0,-1.827 1.103,-2.761 2.299,-2.761 1.187,0 1.785,0.725 1.785,1.774 0,0.273 -0.053,0.641 -0.126,0.903 z m 1.837,-0.556 c 0.021,-0.095 0.052,-0.273 0.052,-0.452 0,-0.578 -0.209,-1.071 -0.818,-1.071 -0.619,0 -0.986,0.493 -1.061,1.522 h 1.827 z"
   id="path7" />
		<path
   d="m 61.408,24.498 h 0.031 c 0.221,-0.356 0.609,-0.966 1.291,-0.966 0.494,0 0.725,0.231 0.725,0.557 0,0.231 -0.104,0.431 -0.188,0.535 -0.084,-0.042 -0.347,-0.157 -0.704,-0.157 -0.577,0 -0.871,0.231 -1.092,0.535 v 3.16 l 0.756,0.137 c 0.105,0.021 0.147,0.052 0.147,0.136 0,0.105 -0.084,0.262 -0.104,0.294 h -2.541 c 0,0 -0.011,-0.063 -0.011,-0.094 0,-0.189 0.126,-0.273 0.325,-0.347 l 0.368,-0.126 v -3.884 l -0.745,-0.116 c 0,0 -0.011,-0.062 -0.011,-0.104 0,-0.179 0.136,-0.305 0.388,-0.326 l 1.428,-0.136 z"
   id="path8" />
		<path
   d="M 66.982,24.235 H 65.544 V 27.3 c 0,0.472 0.146,0.861 0.672,0.861 0.409,0 0.745,-0.179 0.829,-0.252 0.053,0.084 0.095,0.241 0.095,0.347 0,0.104 -0.367,0.598 -1.323,0.598 -0.955,0 -1.333,-0.556 -1.333,-1.365 v -3.254 h -0.787 c 0,0 -0.011,-0.063 -0.011,-0.094 0,-0.2 0.126,-0.315 0.325,-0.357 l 0.515,-0.126 0.241,-1.417 h 0.777 v 1.417 h 1.554 z"
   id="path9" />
		<path
   d="m 74.353,28.141 0.766,0.105 c 0,0 0.011,0.042 0.011,0.084 0,0.189 -0.137,0.315 -0.389,0.336 l -1.386,0.126 v -0.683 h -0.031 c -0.23,0.326 -0.672,0.746 -1.49,0.746 -1.029,0 -1.995,-0.662 -1.995,-2.488 0,-1.953 1.364,-2.835 2.708,-2.835 0.305,0 0.567,0.053 0.746,0.095 V 21.79 l -0.746,-0.105 c 0,0 -0.01,-0.073 -0.01,-0.115 0,-0.179 0.137,-0.305 0.389,-0.325 l 1.428,-0.137 v 7.033 z m -1.06,-3.664 c -0.158,-0.147 -0.441,-0.315 -0.882,-0.315 -0.851,0 -1.48,0.609 -1.48,1.995 0,1.354 0.588,1.9 1.291,1.9 0.609,0 0.935,-0.284 1.071,-0.441 z"
   id="path10" />
		<path
   d="m 80.411,28.141 0.766,0.105 c 0,0 0.011,0.042 0.011,0.084 0,0.189 -0.137,0.315 -0.389,0.336 l -1.386,0.126 v -0.693 h -0.021 c -0.168,0.22 -0.629,0.756 -1.553,0.756 -1.123,0 -1.648,-0.662 -1.648,-1.9 v -2.677 l -0.745,-0.116 c 0,0 -0.011,-0.062 -0.011,-0.104 0,-0.179 0.137,-0.305 0.389,-0.326 l 1.428,-0.136 v 3.307 c 0,0.955 0.504,1.176 0.966,1.176 0.535,0 0.891,-0.231 1.133,-0.504 v -3.296 l -0.746,-0.116 c 0,0 -0.01,-0.062 -0.01,-0.104 0,-0.179 0.137,-0.305 0.389,-0.326 l 1.427,-0.136 z"
   id="path11" />
		<path
   d="m 83.383,24.498 h 0.031 c 0.221,-0.356 0.609,-0.966 1.292,-0.966 0.493,0 0.724,0.231 0.724,0.557 0,0.231 -0.104,0.431 -0.188,0.535 -0.084,-0.042 -0.347,-0.157 -0.703,-0.157 -0.578,0 -0.872,0.231 -1.092,0.535 v 3.16 l 0.756,0.137 c 0.104,0.021 0.146,0.052 0.146,0.136 0,0.105 -0.084,0.262 -0.105,0.294 h -2.54 c 0,0 -0.011,-0.063 -0.011,-0.094 0,-0.189 0.126,-0.273 0.326,-0.347 l 0.367,-0.126 V 24.278 L 81.64,24.162 c 0,0 -0.01,-0.062 -0.01,-0.104 0,-0.179 0.137,-0.305 0.389,-0.326 l 1.428,-0.136 z"
   id="path12" />
		<path
   d="m 88.265,24.162 c -0.703,0 -1.312,0.504 -1.312,1.879 0,1.323 0.515,2.089 1.502,2.089 0.65,0 1.028,-0.336 1.196,-0.504 0.095,0.094 0.168,0.262 0.168,0.356 0,0.263 -0.577,0.872 -1.731,0.872 -1.365,0 -2.247,-0.861 -2.247,-2.593 0,-1.774 1.187,-2.729 2.604,-2.729 1.155,0 1.448,0.567 1.448,0.872 0,0.284 -0.136,0.546 -0.535,0.63 -0.158,-0.368 -0.4,-0.872 -1.093,-0.872 z"
   id="path13" />
		<path
   d="m 92.161,24.288 h 0.021 c 0.21,-0.252 0.714,-0.756 1.617,-0.756 1.05,0 1.647,0.62 1.647,1.848 v 2.782 l 0.609,0.137 c 0.105,0.021 0.146,0.052 0.146,0.136 0,0.105 -0.084,0.262 -0.104,0.294 h -2.383 c 0,0 -0.011,-0.063 -0.011,-0.094 0,-0.189 0.126,-0.284 0.325,-0.347 l 0.347,-0.126 v -2.656 c 0,-0.892 -0.482,-1.165 -1.019,-1.165 -0.65,0 -0.997,0.283 -1.196,0.483 v 3.338 l 0.588,0.137 c 0.104,0.021 0.146,0.052 0.146,0.136 0,0.105 -0.073,0.262 -0.104,0.294 h -2.384 c 0,0 -0.01,-0.063 -0.01,-0.094 0,-0.189 0.126,-0.284 0.325,-0.347 l 0.367,-0.126 V 21.79 l -0.745,-0.105 c 0,0 -0.011,-0.073 -0.011,-0.115 0,-0.179 0.137,-0.305 0.389,-0.325 l 1.438,-0.137 v 3.18 z"
   id="path14" />
		<path
   d="m 97.558,24.823 c -0.367,0 -0.65,-0.252 -0.65,-0.64 0,-0.399 0.283,-0.651 0.65,-0.651 0.368,0 0.662,0.252 0.662,0.651 0,0.388 -0.294,0.64 -0.662,0.64 z m 0,4.042 c -0.367,0 -0.65,-0.252 -0.65,-0.64 0,-0.399 0.283,-0.651 0.65,-0.651 0.368,0 0.662,0.252 0.662,0.651 0,0.388 -0.294,0.64 -0.662,0.64 z"
   id="path15" />
	</g>
	<g
   id="g62">
		<path
   d="m 27.315,139.762 c 0,0.42 0.157,0.546 0.336,0.546 0.241,0 0.367,-0.126 0.398,-0.179 0.053,0.074 0.126,0.221 0.126,0.315 0,0.137 -0.272,0.546 -0.955,0.546 -0.483,0 -0.788,-0.21 -0.882,-0.735 h -0.021 c -0.115,0.2 -0.504,0.756 -1.375,0.756 -0.798,0 -1.365,-0.546 -1.365,-1.375 0,-1.123 1.229,-1.543 2.404,-1.543 h 0.273 v -0.473 c 0,-0.955 -0.252,-1.333 -0.903,-1.333 -0.241,0 -0.451,0.073 -0.535,0.104 -0.095,0.2 -0.179,0.567 -0.231,0.924 0,0 -0.157,0.011 -0.241,0.011 -0.356,0 -0.556,-0.168 -0.556,-0.493 0,-0.651 0.86,-1.145 1.837,-1.145 1.154,0 1.69,0.63 1.69,1.816 z m -1.302,-1.145 c -0.85,0.042 -1.333,0.347 -1.333,0.903 0,0.44 0.252,0.734 0.683,0.734 0.431,0 0.756,-0.283 0.893,-0.451 v -1.196 z"
   id="path16" />
		<path
   d="m 33.309,140.297 0.767,0.105 c 0,0 0.011,0.042 0.011,0.084 0,0.188 -0.137,0.314 -0.389,0.336 l -1.386,0.126 v -0.693 h -0.021 c -0.168,0.221 -0.63,0.756 -1.554,0.756 -1.124,0 -1.648,-0.661 -1.648,-1.899 v -2.678 l -0.745,-0.115 c 0,0 -0.011,-0.062 -0.011,-0.104 0,-0.179 0.137,-0.305 0.389,-0.326 l 1.428,-0.136 v 3.307 c 0,0.955 0.504,1.176 0.966,1.176 0.535,0 0.893,-0.231 1.134,-0.504 v -3.297 l -0.745,-0.115 c 0,0 -0.011,-0.062 -0.011,-0.104 0,-0.179 0.136,-0.305 0.388,-0.326 l 1.428,-0.136 v 4.543 z"
   id="path17" />
		<path
   d="m 37.647,136.392 h -1.281 v 3.927 l 0.714,0.137 c 0.104,0.021 0.147,0.052 0.147,0.136 0,0.105 -0.074,0.263 -0.105,0.294 h -2.498 c 0,0 -0.011,-0.062 -0.011,-0.094 0,-0.189 0.126,-0.273 0.325,-0.347 l 0.357,-0.126 v -3.927 h -0.777 c 0,0 -0.011,-0.062 -0.011,-0.094 0,-0.2 0.126,-0.305 0.325,-0.357 l 0.463,-0.126 v -0.104 c 0,-1.69 1.028,-2.51 1.932,-2.51 0.524,0 0.734,0.231 0.734,0.557 0,0.263 -0.157,0.409 -0.314,0.493 -0.095,-0.104 -0.368,-0.304 -0.693,-0.304 -0.451,0 -0.609,0.252 -0.609,0.871 0,0.325 0.021,0.997 0.021,0.997 h 1.396 z"
   id="path18" />
		<path
   d="m 42.886,136.413 h -0.85 c 0.199,0.263 0.325,0.577 0.325,0.955 0,1.113 -0.924,1.743 -2.068,1.743 -0.179,0 -0.336,-0.021 -0.493,-0.053 -0.147,0.084 -0.294,0.23 -0.294,0.473 0,0.252 0.168,0.367 0.524,0.367 h 1.218 c 0.966,0 1.512,0.44 1.512,1.196 0,1.05 -1.028,2.016 -2.803,2.016 -1.291,0 -1.921,-0.451 -1.921,-1.218 0,-0.734 0.577,-1.081 0.955,-1.196 v -0.021 c -0.273,-0.146 -0.431,-0.398 -0.431,-0.734 0,-0.609 0.557,-0.893 0.756,-0.997 v -0.021 c -0.588,-0.263 -0.966,-0.798 -0.966,-1.554 0,-1.103 0.924,-1.68 1.995,-1.68 0.283,0 0.556,0.042 0.818,0.126 H 43 Z m -3.024,4.43 c -0.146,0 -0.272,-0.01 -0.389,-0.021 -0.272,0.157 -0.451,0.42 -0.451,0.776 0,0.546 0.336,0.893 1.103,0.893 1.019,0 1.648,-0.473 1.648,-1.028 0,-0.431 -0.241,-0.62 -0.777,-0.62 z M 39.4,137.379 c 0,0.829 0.42,1.154 0.945,1.154 0.566,0 0.976,-0.325 0.976,-1.154 0,-0.745 -0.409,-1.123 -0.955,-1.123 -0.546,0 -0.966,0.314 -0.966,1.123 z"
   id="path19" />
		<path
   d="m 45.112,136.654 h 0.031 c 0.221,-0.356 0.609,-0.966 1.291,-0.966 0.494,0 0.725,0.231 0.725,0.557 0,0.23 -0.104,0.431 -0.188,0.535 -0.084,-0.042 -0.347,-0.157 -0.704,-0.157 -0.577,0 -0.871,0.23 -1.092,0.535 v 3.16 l 0.756,0.137 c 0.105,0.021 0.147,0.052 0.147,0.136 0,0.105 -0.084,0.263 -0.104,0.294 h -2.541 c 0,0 -0.011,-0.062 -0.011,-0.094 0,-0.189 0.126,-0.273 0.325,-0.347 l 0.368,-0.126 v -3.885 l -0.745,-0.115 c 0,0 -0.011,-0.062 -0.011,-0.104 0,-0.179 0.136,-0.305 0.388,-0.326 l 1.428,-0.136 z"
   id="path20" />
		<path
   d="m 52.368,140.297 0.766,0.105 c 0,0 0.011,0.042 0.011,0.084 0,0.188 -0.137,0.314 -0.389,0.336 l -1.386,0.126 v -0.693 h -0.021 c -0.168,0.221 -0.63,0.756 -1.554,0.756 -1.123,0 -1.648,-0.661 -1.648,-1.899 v -2.678 l -0.745,-0.115 c 0,0 -0.011,-0.062 -0.011,-0.104 0,-0.179 0.137,-0.305 0.389,-0.326 l 1.428,-0.136 v 3.307 c 0,0.955 0.504,1.176 0.966,1.176 0.535,0 0.892,-0.231 1.134,-0.504 v -3.297 l -0.746,-0.115 c 0,0 -0.01,-0.062 -0.01,-0.104 0,-0.179 0.137,-0.305 0.389,-0.326 l 1.428,-0.136 v 4.543 z"
   id="path21" />
		<path
   d="m 58.688,140.318 0.619,0.137 c 0.105,0.021 0.147,0.052 0.147,0.136 0,0.105 -0.084,0.263 -0.104,0.294 h -2.384 c 0,0 -0.011,-0.062 -0.011,-0.094 0,-0.189 0.127,-0.284 0.326,-0.347 l 0.346,-0.126 v -2.656 c 0,-0.893 -0.504,-1.165 -1.018,-1.165 -0.599,0 -0.987,0.283 -1.207,0.462 v 3.359 L 56,140.455 c 0.105,0.021 0.147,0.052 0.147,0.136 0,0.105 -0.084,0.263 -0.105,0.294 H 53.66 c 0,0 -0.011,-0.062 -0.011,-0.094 0,-0.189 0.126,-0.273 0.326,-0.347 l 0.367,-0.126 v -3.885 l -0.746,-0.115 c 0,0 -0.01,-0.062 -0.01,-0.104 0,-0.179 0.137,-0.305 0.389,-0.326 l 1.428,-0.136 -0.063,0.734 h 0.031 c 0.284,-0.305 0.756,-0.798 1.722,-0.798 1.029,0 1.596,0.661 1.596,1.848 v 2.782 z"
   id="path22" />
		<path
   d="m 64.505,140.297 0.767,0.105 c 0,0 0.011,0.042 0.011,0.084 0,0.188 -0.137,0.314 -0.389,0.336 l -1.386,0.126 v -0.683 h -0.031 c -0.231,0.325 -0.672,0.745 -1.491,0.745 -1.028,0 -1.994,-0.661 -1.994,-2.487 0,-1.953 1.365,-2.835 2.709,-2.835 0.304,0 0.566,0.053 0.745,0.095 v -1.837 l -0.745,-0.105 c 0,0 -0.011,-0.073 -0.011,-0.115 0,-0.179 0.136,-0.305 0.388,-0.325 l 1.428,-0.137 v 7.033 z m -1.06,-3.663 c -0.157,-0.147 -0.441,-0.315 -0.882,-0.315 -0.851,0 -1.48,0.609 -1.48,1.995 0,1.354 0.588,1.899 1.291,1.899 0.609,0 0.935,-0.283 1.071,-0.44 z"
   id="path23" />
		<path
   d="m 69.179,138.365 c 0.01,1.302 0.629,1.911 1.532,1.911 0.672,0 1.05,-0.263 1.312,-0.483 0.104,0.084 0.157,0.263 0.157,0.357 0,0.263 -0.693,0.86 -1.858,0.86 -1.291,0 -2.257,-0.734 -2.257,-2.562 0,-1.826 1.103,-2.761 2.299,-2.761 1.187,0 1.785,0.725 1.785,1.774 0,0.272 -0.053,0.641 -0.126,0.902 h -2.844 z m 1.836,-0.555 c 0.021,-0.095 0.052,-0.273 0.052,-0.452 0,-0.577 -0.209,-1.07 -0.818,-1.07 -0.619,0 -0.986,0.493 -1.061,1.522 z"
   id="path24" />
		<path
   d="m 74.69,140.318 0.619,0.137 c 0.104,0.021 0.146,0.052 0.146,0.136 0,0.105 -0.084,0.263 -0.104,0.294 h -2.404 c 0,0 -0.011,-0.062 -0.011,-0.094 0,-0.189 0.126,-0.273 0.326,-0.347 l 0.367,-0.126 v -3.885 l -0.746,-0.115 c 0,0 -0.01,-0.062 -0.01,-0.104 0,-0.179 0.137,-0.305 0.389,-0.326 l 1.428,-0.136 z m -0.536,-5.606 c -0.388,0 -0.683,-0.262 -0.683,-0.672 0,-0.398 0.295,-0.672 0.683,-0.672 0.378,0 0.693,0.273 0.693,0.672 0,0.41 -0.315,0.672 -0.693,0.672 z"
   id="path25" />
		<path
   d="m 81.02,140.318 0.619,0.137 c 0.105,0.021 0.147,0.052 0.147,0.136 0,0.105 -0.084,0.263 -0.104,0.294 h -2.384 c 0,0 -0.011,-0.062 -0.011,-0.094 0,-0.189 0.127,-0.284 0.326,-0.347 l 0.346,-0.126 v -2.656 c 0,-0.893 -0.504,-1.165 -1.018,-1.165 -0.599,0 -0.987,0.283 -1.207,0.462 v 3.359 l 0.598,0.137 c 0.105,0.021 0.147,0.052 0.147,0.136 0,0.105 -0.084,0.263 -0.105,0.294 h -2.383 c 0,0 -0.011,-0.062 -0.011,-0.094 0,-0.189 0.126,-0.273 0.326,-0.347 l 0.367,-0.126 v -3.885 l -0.746,-0.115 c 0,0 -0.01,-0.062 -0.01,-0.104 0,-0.179 0.137,-0.305 0.389,-0.326 l 1.428,-0.136 -0.063,0.734 h 0.031 c 0.284,-0.305 0.756,-0.798 1.722,-0.798 1.029,0 1.596,0.661 1.596,1.848 z"
   id="path26" />
		<path
   d="m 83.436,138.365 c 0.011,1.302 0.631,1.911 1.533,1.911 0.672,0 1.05,-0.263 1.312,-0.483 0.104,0.084 0.157,0.263 0.157,0.357 0,0.263 -0.692,0.86 -1.858,0.86 -1.291,0 -2.257,-0.734 -2.257,-2.562 0,-1.826 1.103,-2.761 2.299,-2.761 1.187,0 1.785,0.725 1.785,1.774 0,0.272 -0.053,0.641 -0.126,0.902 h -2.845 z m 1.838,-0.555 c 0.021,-0.095 0.053,-0.273 0.053,-0.452 0,-0.577 -0.211,-1.07 -0.819,-1.07 -0.619,0 -0.987,0.493 -1.061,1.522 z"
   id="path27" />
		<path
   d="m 89.694,136.466 c -0.115,-0.084 -0.378,-0.21 -0.693,-0.21 -0.346,0 -0.703,0.146 -0.703,0.588 0,0.462 0.493,0.734 0.997,1.028 0.63,0.378 1.302,0.787 1.302,1.627 0,0.861 -0.714,1.512 -1.868,1.512 -0.588,0 -1.113,-0.178 -1.333,-0.314 -0.043,-0.263 -0.074,-0.535 -0.074,-0.809 0,-0.42 0.115,-0.588 0.431,-0.588 0.053,0 0.137,0.011 0.137,0.011 l 0.22,0.893 c 0.105,0.073 0.41,0.21 0.715,0.21 0.514,0 0.84,-0.2 0.84,-0.641 0,-0.451 -0.504,-0.703 -0.977,-0.997 -0.641,-0.41 -1.281,-0.819 -1.281,-1.722 0,-0.819 0.714,-1.365 1.722,-1.365 0.609,0 1.04,0.21 1.229,0.389 0.021,0.146 0.042,0.367 0.042,0.577 0,0.367 -0.073,0.609 -0.451,0.609 -0.053,0 -0.126,-0.011 -0.126,-0.011 z"
   id="path28" />
		<path
   d="m 97.474,137.138 v 0.021 c 1.019,0.168 1.69,0.745 1.69,1.701 0,1.176 -0.966,2.025 -2.855,2.025 h -2.667 c 0,0 -0.011,-0.062 -0.011,-0.115 0,-0.168 0.084,-0.314 0.357,-0.378 l 0.441,-0.104 v -6.068 l -0.641,-0.146 c -0.105,-0.021 -0.147,-0.053 -0.147,-0.116 0,-0.094 0.073,-0.22 0.116,-0.314 h 2.467 c 1.868,0 2.761,0.661 2.761,1.826 0.001,0.996 -0.607,1.468 -1.511,1.668 z m -1.343,-2.856 h -0.567 v 2.646 h 0.557 c 1.197,0 1.701,-0.588 1.701,-1.334 -0.001,-0.861 -0.536,-1.312 -1.691,-1.312 z m 0.126,3.254 h -0.693 v 2.709 h 0.631 c 1.228,0 1.773,-0.578 1.773,-1.396 0,-0.778 -0.578,-1.313 -1.711,-1.313 z"
   id="path29" />
		<path
   d="m 101.233,138.365 c 0.011,1.302 0.631,1.911 1.533,1.911 0.672,0 1.05,-0.263 1.312,-0.483 0.104,0.084 0.157,0.263 0.157,0.357 0,0.263 -0.692,0.86 -1.858,0.86 -1.291,0 -2.257,-0.734 -2.257,-2.562 0,-1.826 1.103,-2.761 2.299,-2.761 1.187,0 1.785,0.725 1.785,1.774 0,0.272 -0.053,0.641 -0.126,0.902 h -2.845 z m 1.838,-0.555 c 0.021,-0.095 0.053,-0.273 0.053,-0.452 0,-0.577 -0.211,-1.07 -0.819,-1.07 -0.619,0 -0.987,0.493 -1.061,1.522 z"
   id="path30" />
		<path
   d="m 107.492,136.466 c -0.116,-0.084 -0.378,-0.21 -0.693,-0.21 -0.347,0 -0.703,0.146 -0.703,0.588 0,0.462 0.493,0.734 0.997,1.028 0.63,0.378 1.302,0.787 1.302,1.627 0,0.861 -0.714,1.512 -1.868,1.512 -0.588,0 -1.113,-0.178 -1.334,-0.314 -0.041,-0.263 -0.073,-0.535 -0.073,-0.809 0,-0.42 0.116,-0.588 0.431,-0.588 0.053,0 0.137,0.011 0.137,0.011 l 0.221,0.893 c 0.104,0.073 0.409,0.21 0.713,0.21 0.515,0 0.84,-0.2 0.84,-0.641 0,-0.451 -0.504,-0.703 -0.976,-0.997 -0.641,-0.41 -1.281,-0.819 -1.281,-1.722 0,-0.819 0.714,-1.365 1.722,-1.365 0.609,0 1.039,0.21 1.229,0.389 0.021,0.146 0.042,0.367 0.042,0.577 0,0.367 -0.073,0.609 -0.451,0.609 -0.053,0 -0.126,-0.011 -0.126,-0.011 z"
   id="path31" />
		<path
   d="m 111.649,136.318 c -0.703,0 -1.312,0.504 -1.312,1.879 0,1.323 0.515,2.09 1.502,2.09 0.65,0 1.028,-0.336 1.196,-0.504 0.095,0.094 0.168,0.262 0.168,0.356 0,0.263 -0.577,0.871 -1.731,0.871 -1.365,0 -2.247,-0.86 -2.247,-2.593 0,-1.774 1.187,-2.729 2.604,-2.729 1.155,0 1.448,0.567 1.448,0.871 0,0.284 -0.136,0.546 -0.535,0.63 -0.158,-0.367 -0.399,-0.871 -1.093,-0.871 z"
   id="path32" />
		<path
   d="m 115.546,136.444 h 0.021 c 0.21,-0.252 0.714,-0.756 1.617,-0.756 1.05,0 1.647,0.619 1.647,1.848 v 2.782 l 0.609,0.137 c 0.105,0.021 0.146,0.052 0.146,0.136 0,0.105 -0.084,0.263 -0.104,0.294 h -2.383 c 0,0 -0.011,-0.062 -0.011,-0.094 0,-0.189 0.126,-0.284 0.325,-0.347 l 0.347,-0.126 v -2.656 c 0,-0.893 -0.482,-1.165 -1.019,-1.165 -0.65,0 -0.997,0.283 -1.196,0.482 v 3.339 l 0.588,0.137 c 0.104,0.021 0.146,0.052 0.146,0.136 0,0.105 -0.073,0.263 -0.104,0.294 h -2.384 c 0,0 -0.01,-0.062 -0.01,-0.094 0,-0.189 0.126,-0.284 0.325,-0.347 l 0.367,-0.126 v -6.372 l -0.745,-0.105 c 0,0 -0.011,-0.073 -0.011,-0.115 0,-0.179 0.137,-0.305 0.389,-0.325 l 1.438,-0.137 v 3.18 z"
   id="path33" />
		<path
   d="m 121.719,140.318 0.608,0.137 c 0.105,0.021 0.147,0.052 0.147,0.136 0,0.105 -0.073,0.263 -0.104,0.294 h -2.395 c 0,0 -0.01,-0.062 -0.01,-0.094 0,-0.189 0.126,-0.284 0.325,-0.347 l 0.367,-0.126 v -6.372 l -0.745,-0.105 c 0,0 -0.011,-0.073 -0.011,-0.115 0,-0.179 0.137,-0.305 0.389,-0.325 l 1.428,-0.137 v 7.054 z"
   id="path34" />
		<path
   d="m 127.819,140.297 0.766,0.105 c 0,0 0.011,0.042 0.011,0.084 0,0.188 -0.137,0.314 -0.389,0.336 l -1.386,0.126 v -0.693 H 126.8 c -0.168,0.221 -0.63,0.756 -1.554,0.756 -1.123,0 -1.648,-0.661 -1.648,-1.899 v -2.678 l -0.745,-0.115 c 0,0 -0.011,-0.062 -0.011,-0.104 0,-0.179 0.137,-0.305 0.389,-0.326 l 1.428,-0.136 v 3.307 c 0,0.955 0.504,1.176 0.966,1.176 0.535,0 0.892,-0.231 1.134,-0.504 v -3.297 l -0.746,-0.115 c 0,0 -0.01,-0.062 -0.01,-0.104 0,-0.179 0.137,-0.305 0.389,-0.326 l 1.428,-0.136 v 4.543 z"
   id="path35" />
		<path
   d="m 131.599,136.466 c -0.116,-0.084 -0.378,-0.21 -0.693,-0.21 -0.347,0 -0.703,0.146 -0.703,0.588 0,0.462 0.493,0.734 0.997,1.028 0.63,0.378 1.302,0.787 1.302,1.627 0,0.861 -0.714,1.512 -1.868,1.512 -0.588,0 -1.113,-0.178 -1.334,-0.314 -0.041,-0.263 -0.073,-0.535 -0.073,-0.809 0,-0.42 0.116,-0.588 0.431,-0.588 0.053,0 0.137,0.011 0.137,0.011 l 0.221,0.893 c 0.104,0.073 0.409,0.21 0.713,0.21 0.515,0 0.84,-0.2 0.84,-0.641 0,-0.451 -0.504,-0.703 -0.976,-0.997 -0.641,-0.41 -1.281,-0.819 -1.281,-1.722 0,-0.819 0.714,-1.365 1.722,-1.365 0.609,0 1.039,0.21 1.229,0.389 0.021,0.146 0.042,0.367 0.042,0.577 0,0.367 -0.073,0.609 -0.451,0.609 -0.053,0 -0.126,-0.011 -0.126,-0.011 z"
   id="path36" />
		<path
   d="m 135.736,136.466 c -0.116,-0.084 -0.378,-0.21 -0.693,-0.21 -0.347,0 -0.703,0.146 -0.703,0.588 0,0.462 0.493,0.734 0.997,1.028 0.63,0.378 1.302,0.787 1.302,1.627 0,0.861 -0.714,1.512 -1.868,1.512 -0.588,0 -1.113,-0.178 -1.334,-0.314 -0.041,-0.263 -0.073,-0.535 -0.073,-0.809 0,-0.42 0.116,-0.588 0.431,-0.588 0.053,0 0.137,0.011 0.137,0.011 l 0.221,0.893 c 0.104,0.073 0.409,0.21 0.713,0.21 0.515,0 0.84,-0.2 0.84,-0.641 0,-0.451 -0.504,-0.703 -0.976,-0.997 -0.641,-0.41 -1.281,-0.819 -1.281,-1.722 0,-0.819 0.714,-1.365 1.722,-1.365 0.609,0 1.039,0.21 1.229,0.389 0.021,0.146 0.042,0.367 0.042,0.577 0,0.367 -0.073,0.609 -0.451,0.609 -0.053,0 -0.126,-0.011 -0.126,-0.011 z"
   id="path37" />
		<path
   d="m 138.581,138.365 c 0.011,1.302 0.631,1.911 1.533,1.911 0.672,0 1.05,-0.263 1.312,-0.483 0.104,0.084 0.157,0.263 0.157,0.357 0,0.263 -0.692,0.86 -1.858,0.86 -1.291,0 -2.257,-0.734 -2.257,-2.562 0,-1.826 1.103,-2.761 2.299,-2.761 1.187,0 1.785,0.725 1.785,1.774 0,0.272 -0.053,0.641 -0.126,0.902 h -2.845 z m 1.838,-0.555 c 0.021,-0.095 0.053,-0.273 0.053,-0.452 0,-0.577 -0.211,-1.07 -0.819,-1.07 -0.619,0 -0.987,0.493 -1.061,1.522 z"
   id="path38" />
		<path
   d="m 144.84,136.466 c -0.116,-0.084 -0.378,-0.21 -0.693,-0.21 -0.347,0 -0.703,0.146 -0.703,0.588 0,0.462 0.493,0.734 0.997,1.028 0.63,0.378 1.302,0.787 1.302,1.627 0,0.861 -0.714,1.512 -1.868,1.512 -0.588,0 -1.113,-0.178 -1.334,-0.314 -0.041,-0.263 -0.073,-0.535 -0.073,-0.809 0,-0.42 0.116,-0.588 0.431,-0.588 0.053,0 0.137,0.011 0.137,0.011 l 0.221,0.893 c 0.104,0.073 0.409,0.21 0.713,0.21 0.515,0 0.84,-0.2 0.84,-0.641 0,-0.451 -0.504,-0.703 -0.976,-0.997 -0.641,-0.41 -1.281,-0.819 -1.281,-1.722 0,-0.819 0.714,-1.365 1.722,-1.365 0.609,0 1.039,0.21 1.229,0.389 0.021,0.146 0.042,0.367 0.042,0.577 0,0.367 -0.073,0.609 -0.451,0.609 -0.053,0 -0.126,-0.011 -0.126,-0.011 z"
   id="path39" />
		<path
   d="m 28.155,152.298 0.766,0.105 c 0,0 0.011,0.041 0.011,0.084 0,0.188 -0.137,0.314 -0.389,0.336 l -1.386,0.125 v -0.682 h -0.031 c -0.23,0.325 -0.672,0.745 -1.49,0.745 -1.029,0 -1.995,-0.661 -1.995,-2.488 0,-1.952 1.364,-2.834 2.708,-2.834 0.305,0 0.567,0.052 0.746,0.095 v -1.838 l -0.746,-0.104 c 0,0 -0.01,-0.073 -0.01,-0.116 0,-0.178 0.137,-0.304 0.389,-0.325 l 1.428,-0.136 v 7.033 z m -1.06,-3.664 c -0.158,-0.146 -0.441,-0.314 -0.882,-0.314 -0.851,0 -1.48,0.608 -1.48,1.994 0,1.354 0.588,1.9 1.291,1.9 0.609,0 0.935,-0.283 1.071,-0.441 z"
   id="path40" />
		<path
   d="m 30.643,150.366 c 0.011,1.302 0.631,1.91 1.533,1.91 0.672,0 1.05,-0.262 1.312,-0.482 0.104,0.084 0.157,0.263 0.157,0.357 0,0.262 -0.692,0.86 -1.858,0.86 -1.291,0 -2.257,-0.735 -2.257,-2.562 0,-1.827 1.103,-2.761 2.299,-2.761 1.187,0 1.785,0.724 1.785,1.774 0,0.272 -0.053,0.64 -0.126,0.902 h -2.845 z m 1.838,-0.556 c 0.021,-0.094 0.053,-0.272 0.053,-0.451 0,-0.577 -0.211,-1.07 -0.819,-1.07 -0.619,0 -0.987,0.493 -1.061,1.521 z"
   id="path41" />
		<path
   d="m 36.901,148.466 c -0.115,-0.084 -0.378,-0.21 -0.693,-0.21 -0.346,0 -0.703,0.147 -0.703,0.588 0,0.462 0.493,0.735 0.997,1.029 0.63,0.378 1.302,0.787 1.302,1.627 0,0.86 -0.714,1.512 -1.868,1.512 -0.588,0 -1.113,-0.179 -1.333,-0.315 -0.043,-0.262 -0.074,-0.535 -0.074,-0.808 0,-0.42 0.115,-0.588 0.431,-0.588 0.053,0 0.137,0.011 0.137,0.011 l 0.22,0.892 c 0.105,0.073 0.41,0.21 0.715,0.21 0.514,0 0.84,-0.199 0.84,-0.641 0,-0.451 -0.504,-0.703 -0.977,-0.997 -0.641,-0.409 -1.281,-0.818 -1.281,-1.722 0,-0.818 0.714,-1.364 1.722,-1.364 0.609,0 1.04,0.21 1.229,0.388 0.021,0.147 0.042,0.368 0.042,0.578 0,0.367 -0.073,0.608 -0.451,0.608 -0.053,0 -0.126,-0.011 -0.126,-0.011 z"
   id="path42" />
		<path
   d="m 43.222,152.886 h -2.373 c 0,0 -0.011,-0.062 -0.011,-0.115 0,-0.168 0.084,-0.315 0.357,-0.378 l 0.441,-0.105 v -6.067 l -0.641,-0.147 c -0.105,-0.021 -0.147,-0.052 -0.147,-0.115 0,-0.095 0.073,-0.221 0.116,-0.315 h 2.257 c 2.646,0 4.23,0.987 4.23,3.518 0.002,2.548 -1.573,3.724 -4.229,3.724 z m -0.032,-6.604 h -0.42 v 5.963 h 0.42 c 1.942,0 3.056,-1.018 3.056,-3.055 0,-1.962 -1.124,-2.908 -3.056,-2.908 z"
   id="path43" />
		<path
   d="m 49.501,150.366 c 0.011,1.302 0.631,1.91 1.533,1.91 0.672,0 1.05,-0.262 1.312,-0.482 0.104,0.084 0.157,0.263 0.157,0.357 0,0.262 -0.692,0.86 -1.858,0.86 -1.291,0 -2.257,-0.735 -2.257,-2.562 0,-1.827 1.103,-2.761 2.299,-2.761 1.187,0 1.785,0.724 1.785,1.774 0,0.272 -0.053,0.64 -0.126,0.902 h -2.845 z m 1.838,-0.556 c 0.021,-0.094 0.053,-0.272 0.053,-0.451 0,-0.577 -0.211,-1.07 -0.819,-1.07 -0.619,0 -0.987,0.493 -1.061,1.521 z"
   id="path44" />
		<path
   d="m 58.038,152.298 0.766,0.105 c 0,0 0.011,0.041 0.011,0.084 0,0.188 -0.137,0.314 -0.389,0.336 l -1.386,0.125 v -0.692 h -0.021 c -0.168,0.221 -0.63,0.756 -1.554,0.756 -1.123,0 -1.648,-0.661 -1.648,-1.9 v -2.677 l -0.745,-0.115 c 0,0 -0.011,-0.063 -0.011,-0.105 0,-0.178 0.137,-0.305 0.389,-0.325 l 1.428,-0.137 v 3.308 c 0,0.955 0.504,1.176 0.966,1.176 0.535,0 0.892,-0.231 1.134,-0.504 v -3.297 l -0.746,-0.115 c 0,0 -0.01,-0.063 -0.01,-0.105 0,-0.178 0.137,-0.305 0.389,-0.325 l 1.428,-0.137 v 4.544 z"
   id="path45" />
		<path
   d="m 62.417,148.393 h -1.438 v 3.065 c 0,0.473 0.146,0.861 0.672,0.861 0.409,0 0.745,-0.179 0.829,-0.252 0.053,0.084 0.095,0.241 0.095,0.346 0,0.105 -0.368,0.599 -1.323,0.599 -0.955,0 -1.333,-0.557 -1.333,-1.364 v -3.255 h -0.787 c 0,0 -0.011,-0.063 -0.011,-0.095 0,-0.199 0.126,-0.314 0.325,-0.356 l 0.515,-0.126 0.241,-1.418 h 0.777 v 1.418 h 1.554 z"
   id="path46" />
		<path
   d="m 65.493,148.466 c -0.115,-0.084 -0.378,-0.21 -0.693,-0.21 -0.346,0 -0.703,0.147 -0.703,0.588 0,0.462 0.493,0.735 0.997,1.029 0.63,0.378 1.302,0.787 1.302,1.627 0,0.86 -0.714,1.512 -1.868,1.512 -0.588,0 -1.113,-0.179 -1.333,-0.315 -0.043,-0.262 -0.074,-0.535 -0.074,-0.808 0,-0.42 0.115,-0.588 0.431,-0.588 0.053,0 0.137,0.011 0.137,0.011 l 0.22,0.892 c 0.105,0.073 0.41,0.21 0.715,0.21 0.514,0 0.84,-0.199 0.84,-0.641 0,-0.451 -0.504,-0.703 -0.977,-0.997 -0.641,-0.409 -1.281,-0.818 -1.281,-1.722 0,-0.818 0.714,-1.364 1.722,-1.364 0.609,0 1.04,0.21 1.229,0.388 0.021,0.147 0.042,0.368 0.042,0.578 0,0.367 -0.073,0.608 -0.451,0.608 -0.053,0 -0.126,-0.011 -0.126,-0.011 z"
   id="path47" />
		<path
   d="m 69.65,148.319 c -0.703,0 -1.312,0.504 -1.312,1.879 0,1.322 0.514,2.089 1.501,2.089 0.65,0 1.028,-0.336 1.196,-0.504 0.095,0.095 0.168,0.263 0.168,0.357 0,0.263 -0.577,0.871 -1.732,0.871 -1.364,0 -2.246,-0.86 -2.246,-2.593 0,-1.774 1.187,-2.729 2.604,-2.729 1.154,0 1.449,0.566 1.449,0.871 0,0.283 -0.137,0.546 -0.536,0.63 -0.157,-0.367 -0.398,-0.871 -1.092,-0.871 z"
   id="path48" />
		<path
   d="m 73.546,148.445 h 0.021 c 0.21,-0.252 0.714,-0.756 1.617,-0.756 1.05,0 1.647,0.619 1.647,1.848 v 2.782 l 0.609,0.136 c 0.105,0.021 0.146,0.053 0.146,0.137 0,0.104 -0.084,0.263 -0.104,0.294 h -2.383 c 0,0 -0.011,-0.062 -0.011,-0.095 0,-0.188 0.126,-0.283 0.325,-0.347 l 0.347,-0.125 v -2.656 c 0,-0.893 -0.482,-1.166 -1.019,-1.166 -0.65,0 -0.997,0.284 -1.196,0.483 v 3.339 l 0.588,0.136 c 0.104,0.021 0.146,0.053 0.146,0.137 0,0.104 -0.073,0.263 -0.104,0.294 h -2.384 c 0,0 -0.01,-0.062 -0.01,-0.095 0,-0.188 0.126,-0.283 0.325,-0.347 l 0.367,-0.125 v -6.373 l -0.745,-0.104 c 0,0 -0.011,-0.073 -0.011,-0.116 0,-0.178 0.137,-0.304 0.389,-0.325 l 1.438,-0.136 v 3.18 z"
   id="path49" />
		<path
   d="m 79.237,150.366 c 0.01,1.302 0.629,1.91 1.532,1.91 0.672,0 1.05,-0.262 1.312,-0.482 0.104,0.084 0.157,0.263 0.157,0.357 0,0.262 -0.693,0.86 -1.858,0.86 -1.291,0 -2.257,-0.735 -2.257,-2.562 0,-1.827 1.103,-2.761 2.299,-2.761 1.187,0 1.785,0.724 1.785,1.774 0,0.272 -0.053,0.64 -0.126,0.902 h -2.844 z m 1.837,-0.556 c 0.021,-0.094 0.052,-0.272 0.052,-0.451 0,-0.577 -0.209,-1.07 -0.818,-1.07 -0.619,0 -0.986,0.493 -1.061,1.521 z"
   id="path50" />
		<path
   d="m 88.035,152.319 0.62,0.136 c 0.104,0.021 0.146,0.053 0.146,0.137 0,0.104 -0.084,0.263 -0.105,0.294 h -2.383 c 0,0 -0.01,-0.062 -0.01,-0.095 0,-0.188 0.125,-0.283 0.325,-0.347 l 0.347,-0.125 v -2.656 c 0,-0.893 -0.504,-1.166 -1.019,-1.166 -0.599,0 -0.987,0.284 -1.208,0.463 v 3.359 l 0.599,0.136 c 0.105,0.021 0.147,0.053 0.147,0.137 0,0.104 -0.084,0.263 -0.105,0.294 h -2.383 c 0,0 -0.011,-0.062 -0.011,-0.095 0,-0.188 0.126,-0.272 0.325,-0.347 l 0.368,-0.125 v -3.885 l -0.745,-0.115 c 0,0 -0.011,-0.063 -0.011,-0.105 0,-0.178 0.136,-0.305 0.388,-0.325 l 1.428,-0.137 -0.062,0.735 h 0.031 c 0.283,-0.305 0.756,-0.798 1.722,-0.798 1.029,0 1.596,0.661 1.596,1.848 z"
   id="path51" />
		<path
   d="m 95.385,149.138 v 0.021 c 1.019,0.168 1.69,0.745 1.69,1.7 0,1.176 -0.966,2.026 -2.855,2.026 h -2.667 c 0,0 -0.011,-0.062 -0.011,-0.115 0,-0.168 0.084,-0.315 0.357,-0.378 l 0.441,-0.105 v -6.067 l -0.641,-0.147 c -0.105,-0.021 -0.147,-0.052 -0.147,-0.115 0,-0.095 0.073,-0.221 0.116,-0.315 h 2.467 c 1.868,0 2.761,0.662 2.761,1.827 0,0.996 -0.608,1.468 -1.511,1.668 z m -1.344,-2.856 h -0.567 v 2.646 h 0.557 c 1.197,0 1.701,-0.588 1.701,-1.333 -0.001,-0.862 -0.536,-1.313 -1.691,-1.313 z m 0.126,3.255 h -0.693 v 2.708 h 0.631 c 1.228,0 1.773,-0.577 1.773,-1.396 0,-0.777 -0.577,-1.312 -1.711,-1.312 z"
   id="path52" />
		<path
   d="m 102.714,152.298 0.767,0.105 c 0,0 0.011,0.041 0.011,0.084 0,0.188 -0.137,0.314 -0.389,0.336 l -1.386,0.125 v -0.692 h -0.021 c -0.168,0.221 -0.63,0.756 -1.554,0.756 -1.124,0 -1.648,-0.661 -1.648,-1.9 v -2.677 l -0.745,-0.115 c 0,0 -0.011,-0.063 -0.011,-0.105 0,-0.178 0.137,-0.305 0.389,-0.325 l 1.428,-0.137 v 3.308 c 0,0.955 0.504,1.176 0.966,1.176 0.535,0 0.893,-0.231 1.134,-0.504 v -3.297 l -0.745,-0.115 c 0,0 -0.011,-0.063 -0.011,-0.105 0,-0.178 0.136,-0.305 0.388,-0.325 l 1.428,-0.137 v 4.544 z"
   id="path53" />
		<path
   d="m 109.034,152.319 0.619,0.136 c 0.105,0.021 0.147,0.053 0.147,0.137 0,0.104 -0.084,0.263 -0.104,0.294 h -2.384 c 0,0 -0.011,-0.062 -0.011,-0.095 0,-0.188 0.127,-0.283 0.326,-0.347 l 0.346,-0.125 v -2.656 c 0,-0.893 -0.504,-1.166 -1.018,-1.166 -0.599,0 -0.987,0.284 -1.207,0.463 v 3.359 l 0.598,0.136 c 0.105,0.021 0.147,0.053 0.147,0.137 0,0.104 -0.084,0.263 -0.105,0.294 h -2.383 c 0,0 -0.011,-0.062 -0.011,-0.095 0,-0.188 0.126,-0.272 0.326,-0.347 l 0.367,-0.125 v -3.885 l -0.746,-0.115 c 0,0 -0.01,-0.063 -0.01,-0.105 0,-0.178 0.137,-0.305 0.389,-0.325 l 1.428,-0.137 -0.063,0.735 h 0.031 c 0.284,-0.305 0.756,-0.798 1.722,-0.798 1.029,0 1.596,0.661 1.596,1.848 z"
   id="path54" />
		<path
   d="m 114.852,152.298 0.766,0.105 c 0,0 0.011,0.041 0.011,0.084 0,0.188 -0.137,0.314 -0.389,0.336 l -1.386,0.125 v -0.682 h -0.031 c -0.23,0.325 -0.672,0.745 -1.49,0.745 -1.029,0 -1.995,-0.661 -1.995,-2.488 0,-1.952 1.364,-2.834 2.708,-2.834 0.305,0 0.567,0.052 0.746,0.095 v -1.838 l -0.746,-0.104 c 0,0 -0.01,-0.073 -0.01,-0.116 0,-0.178 0.137,-0.304 0.389,-0.325 l 1.428,-0.136 v 7.033 z m -1.06,-3.664 c -0.158,-0.146 -0.441,-0.314 -0.882,-0.314 -0.851,0 -1.48,0.608 -1.48,1.994 0,1.354 0.588,1.9 1.291,1.9 0.609,0 0.935,-0.283 1.071,-0.441 z"
   id="path55" />
		<path
   d="m 117.341,150.366 c 0.01,1.302 0.629,1.91 1.532,1.91 0.672,0 1.05,-0.262 1.312,-0.482 0.104,0.084 0.157,0.263 0.157,0.357 0,0.262 -0.693,0.86 -1.858,0.86 -1.291,0 -2.257,-0.735 -2.257,-2.562 0,-1.827 1.103,-2.761 2.299,-2.761 1.187,0 1.785,0.724 1.785,1.774 0,0.272 -0.053,0.64 -0.126,0.902 h -2.844 z m 1.837,-0.556 c 0.021,-0.094 0.052,-0.272 0.052,-0.451 0,-0.577 -0.209,-1.07 -0.818,-1.07 -0.619,0 -0.986,0.493 -1.061,1.521 z"
   id="path56" />
		<path
   d="m 123.598,148.466 c -0.115,-0.084 -0.378,-0.21 -0.693,-0.21 -0.346,0 -0.703,0.147 -0.703,0.588 0,0.462 0.493,0.735 0.997,1.029 0.63,0.378 1.302,0.787 1.302,1.627 0,0.86 -0.714,1.512 -1.868,1.512 -0.588,0 -1.113,-0.179 -1.333,-0.315 -0.043,-0.262 -0.074,-0.535 -0.074,-0.808 0,-0.42 0.115,-0.588 0.431,-0.588 0.053,0 0.137,0.011 0.137,0.011 l 0.22,0.892 c 0.105,0.073 0.41,0.21 0.715,0.21 0.514,0 0.84,-0.199 0.84,-0.641 0,-0.451 -0.504,-0.703 -0.977,-0.997 -0.641,-0.409 -1.281,-0.818 -1.281,-1.722 0,-0.818 0.714,-1.364 1.722,-1.364 0.609,0 1.04,0.21 1.229,0.388 0.021,0.147 0.042,0.368 0.042,0.578 0,0.367 -0.073,0.608 -0.451,0.608 -0.053,0 -0.126,-0.011 -0.126,-0.011 z"
   id="path57" />
		<path
   d="m 128.333,148.393 h -1.437 v 3.065 c 0,0.473 0.146,0.861 0.672,0.861 0.409,0 0.745,-0.179 0.829,-0.252 0.053,0.084 0.095,0.241 0.095,0.346 0,0.105 -0.367,0.599 -1.323,0.599 -0.955,0 -1.333,-0.557 -1.333,-1.364 v -3.255 h -0.787 c 0,0 -0.011,-0.063 -0.011,-0.095 0,-0.199 0.126,-0.314 0.325,-0.356 l 0.515,-0.126 0.241,-1.418 h 0.777 v 1.418 h 1.554 z"
   id="path58" />
		<path
   d="m 132.68,151.763 c 0,0.42 0.157,0.546 0.336,0.546 0.241,0 0.367,-0.126 0.398,-0.179 0.053,0.073 0.126,0.221 0.126,0.314 0,0.137 -0.272,0.547 -0.955,0.547 -0.483,0 -0.788,-0.211 -0.882,-0.735 h -0.021 c -0.115,0.199 -0.504,0.756 -1.375,0.756 -0.798,0 -1.365,-0.546 -1.365,-1.375 0,-1.124 1.229,-1.544 2.404,-1.544 h 0.273 v -0.472 c 0,-0.956 -0.252,-1.333 -0.903,-1.333 -0.241,0 -0.451,0.073 -0.535,0.104 -0.095,0.199 -0.179,0.567 -0.231,0.924 0,0 -0.157,0.011 -0.241,0.011 -0.356,0 -0.556,-0.168 -0.556,-0.494 0,-0.65 0.86,-1.144 1.837,-1.144 1.154,0 1.69,0.63 1.69,1.815 z m -1.302,-1.145 c -0.85,0.042 -1.333,0.347 -1.333,0.902 0,0.441 0.252,0.735 0.683,0.735 0.431,0 0.756,-0.283 0.893,-0.451 v -1.197 z"
   id="path59" />
		<path
   d="m 138.644,148.413 h -0.851 c 0.2,0.263 0.326,0.578 0.326,0.956 0,1.112 -0.924,1.742 -2.068,1.742 -0.179,0 -0.336,-0.021 -0.493,-0.052 -0.147,0.084 -0.294,0.23 -0.294,0.472 0,0.252 0.168,0.368 0.524,0.368 h 1.218 c 0.966,0 1.512,0.44 1.512,1.196 0,1.05 -1.028,2.016 -2.803,2.016 -1.291,0 -1.921,-0.451 -1.921,-1.218 0,-0.734 0.577,-1.081 0.955,-1.197 v -0.021 c -0.272,-0.147 -0.431,-0.399 -0.431,-0.735 0,-0.608 0.557,-0.892 0.756,-0.997 v -0.021 c -0.588,-0.263 -0.966,-0.798 -0.966,-1.554 0,-1.103 0.924,-1.68 1.995,-1.68 0.283,0 0.557,0.042 0.818,0.126 h 1.838 z m -3.023,4.431 c -0.146,0 -0.272,-0.011 -0.388,-0.021 -0.273,0.157 -0.452,0.42 -0.452,0.776 0,0.546 0.336,0.893 1.103,0.893 1.019,0 1.648,-0.473 1.648,-1.029 0,-0.431 -0.242,-0.619 -0.777,-0.619 z m -0.462,-3.464 c 0,0.829 0.42,1.154 0.945,1.154 0.566,0 0.977,-0.325 0.977,-1.154 0,-0.746 -0.41,-1.124 -0.956,-1.124 -0.546,0 -0.966,0.315 -0.966,1.124 z"
   id="path60" />
		<path
   d="m 140.388,150.366 c 0.011,1.302 0.631,1.91 1.533,1.91 0.672,0 1.05,-0.262 1.312,-0.482 0.104,0.084 0.157,0.263 0.157,0.357 0,0.262 -0.692,0.86 -1.858,0.86 -1.291,0 -2.257,-0.735 -2.257,-2.562 0,-1.827 1.103,-2.761 2.299,-2.761 1.187,0 1.785,0.724 1.785,1.774 0,0.272 -0.053,0.64 -0.126,0.902 h -2.845 z m 1.837,-0.556 c 0.021,-0.094 0.053,-0.272 0.053,-0.451 0,-0.577 -0.211,-1.07 -0.819,-1.07 -0.619,0 -0.987,0.493 -1.061,1.521 z"
   id="path61" />
		<path
   d="m 146.645,148.466 c -0.115,-0.084 -0.378,-0.21 -0.693,-0.21 -0.346,0 -0.703,0.147 -0.703,0.588 0,0.462 0.493,0.735 0.997,1.029 0.63,0.378 1.302,0.787 1.302,1.627 0,0.86 -0.714,1.512 -1.868,1.512 -0.588,0 -1.113,-0.179 -1.333,-0.315 -0.043,-0.262 -0.074,-0.535 -0.074,-0.808 0,-0.42 0.115,-0.588 0.431,-0.588 0.053,0 0.137,0.011 0.137,0.011 l 0.22,0.892 c 0.105,0.073 0.41,0.21 0.715,0.21 0.514,0 0.84,-0.199 0.84,-0.641 0,-0.451 -0.504,-0.703 -0.977,-0.997 -0.641,-0.409 -1.281,-0.818 -1.281,-1.722 0,-0.818 0.714,-1.364 1.722,-1.364 0.609,0 1.04,0.21 1.229,0.388 0.021,0.147 0.042,0.368 0.042,0.578 0,0.367 -0.073,0.608 -0.451,0.608 -0.053,0 -0.126,-0.011 -0.126,-0.011 z"
   id="path62" />
	</g>
</g>
<g
   id="Bildwortmarke">
	<g
   id="g63">
		<path
   d="m 43.392,58.461 c 1.023,1.619 1.825,1.592 3.035,1.592 -1.001,-0.768 -1.663,-1.75 -1.979,-2.252 l -1.87,-2.992 c -0.183,-0.924 -0.661,-1.788 -1.376,-2.431 0.24,-0.091 0.44,-0.187 0.561,-0.278 -1.221,0 -2.431,-0.62 -3.097,-0.62 -0.428,0 -0.704,0.256 -0.704,0.594 0.028,0.377 0.416,0.76 1.132,0.76 0.163,0 0.37,-0.021 0.598,-0.059 0.388,0.541 0.701,1.03 0.701,1.727 0,1.31 -1.566,2.331 -3.147,2.331 -0.089,0 -0.174,-0.003 -0.264,-0.01 -0.144,-0.324 -0.62,-0.87 -0.62,-1.49 0,-1.041 0.679,-1.891 0.679,-2.922 0,-0.641 -0.312,-1.037 -0.433,-1.202 0.194,-0.18 0.407,-0.402 0.456,-0.553 -0.113,0.048 -0.246,0.055 -0.442,0.055 -0.758,0 -1.375,-0.198 -1.978,-0.198 -0.343,0 -0.436,0.106 -0.436,0.207 0,0.037 0.006,0.075 0.016,0.093 -0.128,-0.051 -0.249,-0.083 -0.392,-0.11 -0.177,-0.034 -0.369,-0.051 -0.573,-0.051 -0.732,0 -0.992,0.307 -0.992,0.57 0,0.223 0.175,0.629 0.374,0.938 0.286,-0.143 0.628,-0.241 0.785,-0.241 0.388,0 0.734,0.37 0.917,0.809 -0.261,0.031 -0.312,0.043 -0.576,0.043 -0.712,0 -1.197,-0.255 -1.297,-0.255 -0.01,0 -0.029,0.005 -0.029,0.021 0,0.1 0.202,0.364 0.601,0.51 0.524,0.192 1.311,0.272 1.442,0.293 0,0.023 -0.133,0.271 -0.282,0.319 -0.032,0.01 -0.056,0.011 -0.093,0.004 -0.548,-0.108 -0.701,-0.154 -1.396,-0.419 -0.021,-0.008 -0.034,0.005 -0.034,0.028 0,0.275 0.712,0.882 1.35,1.114 -0.533,0.68 -1.198,1.376 -1.512,2.437 -0.089,0.007 -0.175,0.01 -0.264,0.01 -1.581,0 -3.148,-1.021 -3.148,-2.331 0,-0.698 0.313,-1.186 0.702,-1.727 0.228,0.038 0.435,0.059 0.598,0.059 0.717,0 1.105,-0.384 1.133,-0.76 0,-0.338 -0.275,-0.594 -0.705,-0.594 -0.666,0 -1.875,0.62 -3.097,0.62 0.121,0.091 0.321,0.187 0.561,0.278 -0.715,0.643 -1.193,1.506 -1.376,2.431 l -1.87,2.992 c -0.315,0.502 -0.979,1.484 -1.98,2.252 1.21,0 2.012,0.027 3.036,-1.592 l 0.958,-1.534 c 0.071,0.199 0.159,0.393 0.261,0.583 l -1.907,3.051 c -0.317,0.506 -0.975,1.48 -1.98,2.252 1.21,0 2.012,0.028 3.036,-1.59 l 1.642,-2.628 c 0.123,0.131 0.252,0.259 0.388,0.381 l -2.316,3.708 c -0.318,0.507 -0.972,1.478 -1.979,2.25 1.21,0 2.012,0.029 3.036,-1.59 l 2.258,-3.615 c 0.149,0.094 0.301,0.186 0.458,0.271 l -2.756,4.41 c -0.318,0.508 -0.972,1.477 -1.979,2.25 1.21,0 2.012,0.028 3.036,-1.59 l 2.838,-4.543 c 0.168,0.064 0.338,0.126 0.512,0.182 l -3.207,5.133 c -0.313,0.5 -0.983,1.486 -1.979,2.25 1.209,0 2.012,0.027 3.035,-1.59 l 3.418,-5.471 c 0.035,0.006 0.069,0.012 0.103,0.019 0.093,0.296 0.158,0.571 0.158,0.847 0,1.719 -1.128,3.237 -2.482,4.409 0.086,0.038 0.237,0.051 0.377,0.051 0.279,0 0.46,-0.015 0.586,-0.037 -0.314,0.713 -0.987,1.634 -1.328,2.11 -0.443,-0.08 -1.088,-0.143 -1.51,-0.143 -0.442,0 -0.492,0.259 -0.492,0.489 0,0.401 0.188,0.721 0.406,0.898 0.082,-0.205 0.247,-0.479 1.063,-0.479 0.016,0 0.044,0.002 0.082,0.005 -0.239,0.266 -0.986,0.869 -0.986,1.355 0,0.322 0.354,0.805 0.819,0.805 -0.028,-0.104 -0.024,-0.199 -0.024,-0.271 0,-0.395 0.349,-0.855 0.644,-1.177 -0.009,0.096 -0.004,0.086 -0.004,0.197 0,0.932 0.084,1.359 0.675,1.359 0.29,0 0.49,-0.159 0.559,-0.207 -0.384,-0.354 -0.404,-0.631 -0.404,-1.153 0.001,-0.136 0.002,-0.269 0.003,-0.452 0.001,-0.119 0,-0.277 -0.02,-0.392 0.212,-0.029 0.297,-0.029 0.46,-0.029 0,0 0.84,-0.066 1.042,0.37 0.228,-0.209 0.559,-0.504 0.559,-0.829 0,-0.215 -0.102,-0.458 -0.535,-0.458 -0.164,0 -0.679,0.101 -1.11,0.101 0.116,-0.258 0.631,-1.012 1.078,-1.559 0.067,0.212 0.173,0.441 0.407,0.629 0.032,-0.352 0.239,-1.465 0.789,-2.115 0.064,0.439 0.15,0.891 0.15,1.842 0,2.313 -0.556,4.022 -1.737,4.349 0.154,0.268 0.479,0.508 0.816,0.508 0.432,0 0.667,-0.488 0.907,-0.949 0.125,0.34 0.47,1.174 0.816,1.174 0.346,0 0.691,-0.834 0.816,-1.174 0.24,0.461 0.475,0.949 0.907,0.949 0.337,0 0.663,-0.24 0.816,-0.508 -1.181,-0.326 -1.738,-2.035 -1.738,-4.349 0,-0.951 0.086,-1.402 0.15,-1.842 0.55,0.65 0.757,1.764 0.789,2.115 0.234,-0.188 0.34,-0.417 0.408,-0.629 0.446,0.547 0.962,1.301 1.078,1.559 -0.432,0 -0.947,-0.101 -1.11,-0.101 -0.432,0 -0.534,0.243 -0.534,0.458 0,0.325 0.331,0.62 0.559,0.829 0.202,-0.437 1.042,-0.37 1.042,-0.37 0.163,0 0.248,0 0.46,0.029 -0.02,0.114 -0.021,0.272 -0.02,0.392 0.002,0.184 0.002,0.316 0.003,0.452 0,0.522 -0.02,0.8 -0.403,1.153 0.069,0.048 0.269,0.207 0.559,0.207 0.591,0 0.676,-0.428 0.676,-1.359 0,-0.111 0.003,-0.102 -0.004,-0.197 0.294,0.321 0.644,0.782 0.644,1.177 0,0.071 0.004,0.167 -0.024,0.271 0.466,0 0.819,-0.482 0.819,-0.805 0,-0.486 -0.747,-1.09 -0.986,-1.355 0.039,-0.003 0.066,-0.005 0.082,-0.005 0.817,0 0.981,0.274 1.063,0.479 0.218,-0.178 0.406,-0.497 0.406,-0.898 0,-0.23 -0.049,-0.489 -0.491,-0.489 -0.422,0 -1.067,0.062 -1.511,0.143 -0.34,-0.477 -1.013,-1.397 -1.328,-2.11 0.126,0.022 0.308,0.037 0.586,0.037 0.14,0 0.291,-0.013 0.377,-0.051 -1.354,-1.172 -2.482,-2.69 -2.482,-4.409 0,-0.275 0.065,-0.551 0.158,-0.847 0.034,-0.007 0.069,-0.013 0.104,-0.019 l 3.417,5.471 c 1.023,1.617 1.826,1.59 3.035,1.59 -0.996,-0.764 -1.665,-1.75 -1.978,-2.25 l -3.208,-5.133 c 0.174,-0.056 0.344,-0.117 0.512,-0.182 l 2.838,4.543 c 1.023,1.618 1.825,1.59 3.036,1.59 -1.007,-0.773 -1.661,-1.742 -1.979,-2.25 L 39.535,60 c 0.157,-0.086 0.31,-0.178 0.458,-0.271 l 2.259,3.615 c 1.024,1.619 1.825,1.59 3.035,1.59 -1.006,-0.771 -1.66,-1.743 -1.979,-2.25 l -2.316,-3.708 c 0.136,-0.122 0.266,-0.25 0.388,-0.381 l 1.642,2.628 c 1.024,1.618 1.825,1.59 3.036,1.59 -1.006,-0.771 -1.662,-1.746 -1.98,-2.252 L 42.171,57.51 c 0.103,-0.19 0.19,-0.384 0.261,-0.583 z M 28.086,54.948 c 0,-1.14 0.829,-2.042 1.121,-2.295 0.07,0.017 0.14,0.034 0.21,0.048 -0.31,0.378 -0.857,1.013 -0.857,1.853 0,1.668 1.782,3.116 3.8,3.116 -0.013,0.143 -0.02,0.293 -0.02,0.447 0,0.246 0.014,0.475 0.038,0.691 -2.283,-0.013 -4.292,-1.865 -4.292,-3.86 z m 3.092,13.674 -0.013,0.039 h 0.04 c 0.641,0 0.953,-0.046 1.159,-0.076 0.108,-0.014 0.186,-0.025 0.27,-0.025 0.166,0 0.292,0.016 0.292,0.219 0,0.138 -0.161,0.354 -0.316,0.48 -0.236,-0.223 -0.563,-0.267 -1.043,-0.267 -0.225,0 -0.518,0.04 -0.676,0.062 l -0.025,0.003 -0.028,0.004 0.009,0.075 c 0.019,0.133 0.042,0.298 0.042,0.521 l -0.003,0.202 -0.002,0.251 c 0,0.544 0.075,0.854 0.265,1.089 -0.049,0.019 -0.129,0.033 -0.181,0.033 -0.337,0 -0.436,-0.147 -0.436,-1.121 0,-0.195 -0.011,-0.379 -0.018,-0.501 l -0.009,-0.181 -0.043,0.033 c -0.502,0.383 -1.019,1.066 -1.05,1.578 -0.151,-0.098 -0.315,-0.316 -0.315,-0.484 0,-0.279 0.42,-0.698 0.905,-1.184 l 0.28,-0.279 0.035,-0.036 -0.092,-0.022 c -0.104,-0.027 -0.298,-0.076 -0.463,-0.076 -0.545,0 -0.886,0.103 -1.097,0.332 -0.075,-0.109 -0.139,-0.364 -0.139,-0.514 0,-0.097 0.019,-0.165 0.058,-0.204 0.048,-0.046 0.122,-0.046 0.187,-0.046 h 0.014 c 0.6,0 1.318,0.108 1.598,0.153 l 0.017,0.004 0.011,-0.014 c 0.048,-0.065 1.193,-1.59 1.49,-2.398 0.068,-0.025 0.128,-0.045 0.247,-0.045 0.226,0 0.288,0.152 0.353,0.385 -0.715,0.869 -1.161,1.545 -1.323,2.01 z m 6.174,-2.395 c 0.12,0 0.178,0.02 0.248,0.045 0.297,0.809 1.442,2.333 1.49,2.398 l 0.011,0.014 0.017,-0.004 c 0.28,-0.045 0.997,-0.153 1.598,-0.153 h 0.013 c 0.065,0 0.139,0 0.187,0.046 0.039,0.039 0.058,0.107 0.058,0.204 0,0.149 -0.063,0.404 -0.139,0.514 -0.21,-0.229 -0.551,-0.332 -1.097,-0.332 -0.165,0 -0.358,0.049 -0.463,0.076 l -0.043,0.01 -0.049,0.013 0.315,0.315 c 0.486,0.485 0.906,0.904 0.906,1.184 0,0.168 -0.164,0.387 -0.315,0.484 -0.032,-0.512 -0.549,-1.195 -1.051,-1.578 l -0.043,-0.032 -0.008,0.18 c -0.007,0.122 -0.018,0.306 -0.018,0.501 0,0.974 -0.099,1.121 -0.436,1.121 -0.052,0 -0.131,-0.015 -0.18,-0.033 0.19,-0.234 0.265,-0.545 0.265,-1.089 L 38.615,69.86 38.613,69.658 c 0,-0.223 0.023,-0.388 0.041,-0.521 l 0.01,-0.075 -0.053,-0.007 c -0.158,-0.022 -0.451,-0.062 -0.675,-0.062 -0.48,0 -0.807,0.044 -1.043,0.267 -0.156,-0.126 -0.316,-0.343 -0.316,-0.48 0,-0.203 0.127,-0.219 0.292,-0.219 0.084,0 0.162,0.012 0.27,0.025 0.207,0.03 0.518,0.076 1.159,0.076 h 0.039 l -0.012,-0.039 c -0.163,-0.465 -0.608,-1.141 -1.324,-2.01 0.063,-0.234 0.126,-0.386 0.351,-0.386 z m -2.65,-13.3 c -0.071,-0.296 -0.223,-0.6 -0.416,-0.829 -0.176,-0.207 -0.467,-0.454 -0.858,-0.454 -0.179,0 -0.479,0.083 -0.67,0.164 -0.072,-0.129 -0.211,-0.443 -0.211,-0.584 0,-0.145 0.246,-0.292 0.714,-0.292 1.032,0 1.649,0.467 1.649,1.249 -10e-4,0.274 -0.11,0.524 -0.208,0.746 z m 0.463,-1.017 c -0.037,-0.221 -0.121,-0.421 -0.249,-0.592 0.006,-0.202 0.089,-0.395 0.415,-0.236 -0.176,0.18 -0.04,0.499 -0.04,0.499 0,0 0.36,-0.167 0.286,-0.404 0.533,0.126 0.149,0.843 -0.412,0.733 z m 2.008,6.899 c 0.027,-0.224 0.043,-0.455 0.043,-0.691 0,-0.129 10e-4,-0.278 -0.015,-0.448 1.993,-0.028 3.741,-1.464 3.741,-3.115 0,-0.84 -0.548,-1.475 -0.857,-1.853 0.07,-0.015 0.14,-0.031 0.21,-0.048 0.292,0.254 1.121,1.156 1.121,2.295 -10e-4,1.98 -1.981,3.819 -4.243,3.86 z"
   id="path63" />
	</g>
	<polygon
   fill="#ffcc00"
   points="52.5,91.47 54.5,91.47 56,91.47 56,111.47 52.5,111.47 "
   id="polygon63" />
	<polygon
   fill="#ff0000"
   points="52.5,71.37 54.5,71.37 56,71.37 56,91.47 52.5,91.47 "
   id="polygon64" />
	<polygon
   points="52.5,51.471 56,51.471 56,71.47 54.5,71.47 52.5,71.47 "
   id="polygon65" />
</g>
<g
   id="Name">
	<g
   id="g65">
		<path
   d="m 67.748,53.354 c 0,0.286 -0.036,0.535 -0.107,0.75 -0.071,0.214 -0.169,0.399 -0.291,0.553 -0.123,0.155 -0.266,0.28 -0.428,0.375 -0.163,0.095 -0.331,0.167 -0.506,0.214 v 0.024 c 0.214,0.04 0.414,0.115 0.601,0.226 0.187,0.111 0.349,0.25 0.488,0.417 0.139,0.167 0.25,0.363 0.333,0.589 0.083,0.226 0.125,0.474 0.125,0.744 0,0.325 -0.056,0.623 -0.167,0.893 -0.111,0.27 -0.284,0.504 -0.518,0.702 -0.234,0.198 -0.53,0.353 -0.886,0.464 -0.357,0.111 -0.781,0.167 -1.273,0.167 H 63.44 v -8.211 h 1.583 c 0.484,0 0.898,0.05 1.244,0.149 0.345,0.099 0.629,0.24 0.851,0.423 0.222,0.182 0.383,0.403 0.482,0.66 0.098,0.256 0.148,0.543 0.148,0.861 z m -1.047,0.035 c 0,-0.381 -0.135,-0.694 -0.405,-0.94 -0.27,-0.246 -0.694,-0.369 -1.273,-0.369 h -0.547 v 2.832 h 0.535 c 0.555,0 0.976,-0.135 1.261,-0.405 0.285,-0.27 0.429,-0.642 0.429,-1.118 z m 0.154,3.785 c 0,-0.444 -0.145,-0.795 -0.434,-1.053 -0.29,-0.258 -0.704,-0.387 -1.244,-0.387 h -0.702 v 2.88 h 0.643 c 0.611,0 1.053,-0.121 1.327,-0.363 0.274,-0.242 0.41,-0.601 0.41,-1.077 z m 6.379,2.296 h -0.881 v -0.643 h -0.024 c -0.024,0.048 -0.075,0.117 -0.155,0.208 -0.079,0.091 -0.18,0.179 -0.303,0.262 -0.123,0.083 -0.272,0.157 -0.446,0.22 -0.174,0.064 -0.369,0.095 -0.583,0.095 -0.254,0 -0.482,-0.038 -0.684,-0.113 C 69.956,59.424 69.783,59.303 69.64,59.136 69.497,58.969 69.388,58.753 69.313,58.487 69.238,58.221 69.2,57.894 69.2,57.505 v -3.749 h 0.964 v 3.677 c 0,0.476 0.077,0.815 0.232,1.017 0.155,0.202 0.395,0.303 0.72,0.303 0.278,0 0.512,-0.069 0.702,-0.208 0.19,-0.139 0.341,-0.276 0.452,-0.41 v -4.379 h 0.964 z m 4.593,0 v -3.677 c 0,-0.484 -0.081,-0.831 -0.244,-1.041 -0.163,-0.21 -0.411,-0.315 -0.744,-0.315 -0.286,0 -0.524,0.071 -0.714,0.214 -0.19,0.143 -0.341,0.282 -0.452,0.417 v 4.403 h -0.964 v -5.712 h 0.881 v 0.643 h 0.024 c 0.024,-0.048 0.075,-0.117 0.155,-0.208 0.079,-0.091 0.183,-0.179 0.309,-0.262 0.127,-0.083 0.278,-0.157 0.452,-0.22 0.174,-0.063 0.373,-0.095 0.595,-0.095 0.254,0 0.484,0.038 0.69,0.113 0.206,0.075 0.381,0.196 0.524,0.363 0.143,0.167 0.254,0.383 0.333,0.649 0.079,0.266 0.119,0.593 0.119,0.982 v 3.748 h -0.964 z m 2.142,-2.772 c 0,-0.579 0.075,-1.063 0.226,-1.452 0.151,-0.389 0.345,-0.702 0.583,-0.94 0.238,-0.238 0.508,-0.407 0.809,-0.506 0.301,-0.099 0.603,-0.149 0.904,-0.149 0.182,0 0.341,0.014 0.476,0.042 0.135,0.028 0.246,0.061 0.333,0.101 v -2.737 l 0.964,-0.107 v 8.52 h -0.881 v -0.607 h -0.024 c -0.024,0.048 -0.067,0.113 -0.131,0.196 -0.064,0.083 -0.151,0.167 -0.262,0.25 -0.111,0.083 -0.25,0.155 -0.417,0.214 -0.167,0.06 -0.361,0.089 -0.583,0.089 -0.27,0 -0.526,-0.054 -0.767,-0.161 -0.242,-0.107 -0.454,-0.278 -0.637,-0.512 -0.183,-0.234 -0.327,-0.535 -0.434,-0.904 -0.105,-0.368 -0.159,-0.814 -0.159,-1.337 z m 2.261,2.058 c 0.151,0 0.286,-0.02 0.405,-0.06 0.119,-0.04 0.222,-0.089 0.309,-0.149 0.087,-0.06 0.161,-0.121 0.22,-0.184 0.06,-0.064 0.105,-0.119 0.137,-0.167 v -3.522 c -0.087,-0.056 -0.188,-0.103 -0.303,-0.143 -0.115,-0.04 -0.26,-0.059 -0.434,-0.059 -0.222,0 -0.43,0.038 -0.625,0.113 -0.194,0.075 -0.363,0.2 -0.506,0.375 -0.143,0.175 -0.256,0.401 -0.339,0.678 -0.083,0.278 -0.125,0.619 -0.125,1.023 0,0.397 0.034,0.728 0.101,0.994 0.067,0.266 0.161,0.48 0.28,0.643 0.119,0.163 0.254,0.28 0.405,0.351 0.15,0.072 0.309,0.107 0.475,0.107 z m 7.176,-3.07 c 0,0.246 -0.008,0.458 -0.024,0.637 -0.016,0.179 -0.032,0.335 -0.048,0.47 h -2.916 c 0.032,0.674 0.177,1.17 0.434,1.487 0.258,0.317 0.629,0.476 1.113,0.476 0.167,0 0.317,-0.02 0.452,-0.06 0.135,-0.04 0.252,-0.087 0.351,-0.143 0.099,-0.056 0.182,-0.111 0.25,-0.167 0.067,-0.056 0.117,-0.099 0.149,-0.131 l 0.357,0.678 c -0.04,0.04 -0.099,0.097 -0.178,0.173 -0.079,0.075 -0.186,0.151 -0.321,0.226 -0.135,0.075 -0.301,0.141 -0.5,0.196 -0.198,0.056 -0.432,0.083 -0.702,0.083 -0.357,0 -0.68,-0.06 -0.97,-0.179 -0.29,-0.119 -0.535,-0.304 -0.738,-0.553 -0.202,-0.25 -0.359,-0.567 -0.47,-0.952 -0.111,-0.385 -0.167,-0.847 -0.167,-1.386 0,-0.508 0.057,-0.946 0.173,-1.315 0.115,-0.369 0.272,-0.672 0.47,-0.91 0.198,-0.238 0.428,-0.415 0.69,-0.53 0.262,-0.115 0.543,-0.172 0.845,-0.172 0.547,0 0.976,0.172 1.285,0.518 0.31,0.346 0.465,0.864 0.465,1.554 z m -1.809,-1.285 c -0.341,0 -0.615,0.143 -0.821,0.428 -0.206,0.285 -0.325,0.698 -0.357,1.238 h 2.083 c 0.008,-0.04 0.014,-0.097 0.018,-0.173 0.004,-0.075 0.006,-0.157 0.006,-0.244 0,-0.397 -0.079,-0.704 -0.238,-0.922 -0.159,-0.218 -0.389,-0.327 -0.691,-0.327 z m 5.557,0.512 c -0.063,-0.071 -0.179,-0.169 -0.345,-0.292 -0.167,-0.123 -0.385,-0.184 -0.655,-0.184 -0.254,0 -0.448,0.06 -0.583,0.179 -0.135,0.119 -0.202,0.262 -0.202,0.428 0,0.214 0.062,0.391 0.185,0.53 0.123,0.139 0.311,0.288 0.565,0.446 l 0.357,0.214 c 0.389,0.23 0.694,0.478 0.916,0.744 0.222,0.266 0.333,0.609 0.333,1.029 0,0.452 -0.157,0.833 -0.47,1.142 -0.313,0.309 -0.764,0.464 -1.351,0.464 -0.23,0 -0.432,-0.024 -0.607,-0.071 -0.175,-0.047 -0.327,-0.103 -0.458,-0.167 -0.131,-0.063 -0.24,-0.133 -0.327,-0.208 -0.087,-0.075 -0.159,-0.145 -0.214,-0.208 l 0.464,-0.762 c 0.048,0.048 0.105,0.103 0.173,0.167 0.067,0.063 0.149,0.125 0.244,0.184 0.095,0.059 0.202,0.109 0.321,0.149 0.119,0.04 0.258,0.06 0.417,0.06 0.286,0 0.504,-0.064 0.655,-0.19 0.151,-0.127 0.226,-0.282 0.226,-0.464 0,-0.135 -0.018,-0.252 -0.053,-0.351 C 92.709,57.653 92.656,57.564 92.584,57.484 92.513,57.405 92.425,57.329 92.322,57.258 92.219,57.187 92.1,57.107 91.965,57.02 l -0.357,-0.226 c -0.357,-0.23 -0.637,-0.472 -0.839,-0.726 -0.202,-0.254 -0.303,-0.579 -0.303,-0.976 0,-0.214 0.042,-0.411 0.125,-0.589 0.083,-0.178 0.2,-0.333 0.351,-0.464 0.151,-0.131 0.327,-0.234 0.53,-0.309 0.202,-0.075 0.418,-0.113 0.648,-0.113 0.222,0 0.412,0.022 0.571,0.065 0.159,0.044 0.296,0.099 0.411,0.167 0.115,0.068 0.21,0.135 0.286,0.202 0.075,0.068 0.137,0.125 0.184,0.173 z m 4.701,4.557 v -3.677 c 0,-0.468 -0.067,-0.805 -0.202,-1.012 -0.135,-0.206 -0.353,-0.309 -0.655,-0.309 -0.159,0 -0.299,0.02 -0.422,0.059 -0.123,0.04 -0.232,0.089 -0.327,0.149 -0.095,0.06 -0.178,0.125 -0.25,0.196 -0.071,0.071 -0.131,0.135 -0.179,0.19 v 4.403 h -0.964 v -5.712 h 0.881 V 54.4 h 0.024 c 0.04,-0.064 0.099,-0.141 0.179,-0.232 0.079,-0.091 0.178,-0.179 0.298,-0.262 0.119,-0.083 0.258,-0.153 0.416,-0.208 0.158,-0.055 0.337,-0.083 0.535,-0.083 0.651,0 1.111,0.254 1.38,0.762 0.056,-0.079 0.131,-0.165 0.226,-0.256 0.095,-0.091 0.206,-0.174 0.333,-0.25 0.127,-0.075 0.27,-0.137 0.428,-0.184 0.158,-0.047 0.333,-0.071 0.524,-0.071 1.158,0 1.737,0.674 1.737,2.023 v 3.832 h -0.964 v -3.677 c 0,-0.468 -0.083,-0.805 -0.25,-1.012 -0.167,-0.206 -0.412,-0.309 -0.738,-0.309 -0.27,0 -0.494,0.065 -0.672,0.196 -0.179,0.131 -0.319,0.256 -0.423,0.375 0.016,0.087 0.028,0.181 0.036,0.28 0.008,0.099 0.012,0.204 0.012,0.315 v 3.832 h -0.963 z m 6.366,0 h -0.964 v -5.712 h 0.964 z m -0.476,-7.092 c -0.198,0 -0.357,-0.063 -0.476,-0.19 -0.119,-0.127 -0.179,-0.293 -0.179,-0.5 0,-0.198 0.06,-0.361 0.179,-0.488 0.119,-0.127 0.278,-0.19 0.476,-0.19 0.19,0 0.345,0.063 0.464,0.19 0.119,0.127 0.179,0.29 0.179,0.488 0,0.206 -0.06,0.373 -0.179,0.5 -0.119,0.126 -0.273,0.19 -0.464,0.19 z m 5.07,7.092 v -3.677 c 0,-0.484 -0.081,-0.831 -0.244,-1.041 -0.163,-0.21 -0.411,-0.315 -0.744,-0.315 -0.286,0 -0.524,0.071 -0.714,0.214 -0.19,0.143 -0.341,0.282 -0.452,0.417 v 4.403 h -0.964 v -5.712 h 0.881 v 0.643 h 0.024 c 0.024,-0.048 0.075,-0.117 0.155,-0.208 0.079,-0.091 0.183,-0.179 0.309,-0.262 0.127,-0.083 0.278,-0.157 0.452,-0.22 0.174,-0.063 0.373,-0.095 0.595,-0.095 0.254,0 0.484,0.038 0.69,0.113 0.206,0.075 0.381,0.196 0.524,0.363 0.143,0.167 0.254,0.383 0.333,0.649 0.079,0.266 0.119,0.593 0.119,0.982 v 3.748 h -0.964 z m 3.367,0 h -0.964 v -5.712 h 0.964 z m -0.476,-7.092 c -0.198,0 -0.357,-0.063 -0.476,-0.19 -0.119,-0.127 -0.178,-0.293 -0.178,-0.5 0,-0.198 0.059,-0.361 0.178,-0.488 0.119,-0.127 0.278,-0.19 0.476,-0.19 0.19,0 0.345,0.063 0.464,0.19 0.119,0.127 0.178,0.29 0.178,0.488 0,0.206 -0.06,0.373 -0.178,0.5 -0.118,0.126 -0.273,0.19 -0.464,0.19 z m 4.415,2.535 c -0.063,-0.071 -0.178,-0.169 -0.345,-0.292 -0.167,-0.123 -0.385,-0.184 -0.655,-0.184 -0.254,0 -0.448,0.06 -0.583,0.179 -0.135,0.119 -0.202,0.262 -0.202,0.428 0,0.214 0.062,0.391 0.185,0.53 0.123,0.139 0.311,0.288 0.565,0.446 l 0.357,0.214 c 0.389,0.23 0.694,0.478 0.916,0.744 0.222,0.266 0.333,0.609 0.333,1.029 0,0.452 -0.157,0.833 -0.47,1.142 -0.313,0.309 -0.764,0.464 -1.351,0.464 -0.23,0 -0.432,-0.024 -0.607,-0.071 -0.175,-0.047 -0.327,-0.103 -0.458,-0.167 -0.131,-0.063 -0.24,-0.133 -0.327,-0.208 -0.087,-0.075 -0.159,-0.145 -0.214,-0.208 l 0.464,-0.762 c 0.048,0.048 0.105,0.103 0.173,0.167 0.067,0.063 0.149,0.125 0.244,0.184 0.095,0.06 0.202,0.109 0.321,0.149 0.119,0.04 0.258,0.06 0.416,0.06 0.286,0 0.504,-0.064 0.655,-0.19 0.151,-0.126 0.226,-0.282 0.226,-0.464 0,-0.135 -0.018,-0.252 -0.053,-0.351 -0.036,-0.099 -0.089,-0.188 -0.161,-0.268 -0.071,-0.079 -0.159,-0.155 -0.262,-0.226 -0.103,-0.071 -0.222,-0.151 -0.357,-0.238 l -0.357,-0.226 c -0.357,-0.23 -0.637,-0.472 -0.839,-0.726 -0.202,-0.254 -0.303,-0.579 -0.303,-0.976 0,-0.214 0.042,-0.411 0.125,-0.589 0.083,-0.178 0.2,-0.333 0.351,-0.464 0.151,-0.131 0.327,-0.234 0.53,-0.309 0.202,-0.075 0.418,-0.113 0.648,-0.113 0.222,0 0.412,0.022 0.571,0.065 0.159,0.044 0.296,0.099 0.411,0.167 0.115,0.068 0.21,0.135 0.286,0.202 0.075,0.068 0.137,0.125 0.184,0.173 z m 4.142,-0.369 h -1.249 v 3.165 c 0,0.405 0.052,0.68 0.155,0.827 0.103,0.147 0.278,0.22 0.524,0.22 0.143,0 0.266,-0.02 0.369,-0.06 0.103,-0.04 0.179,-0.075 0.226,-0.107 l 0.131,0.774 c -0.04,0.032 -0.135,0.081 -0.286,0.149 -0.151,0.067 -0.353,0.101 -0.607,0.101 -0.492,0 -0.861,-0.137 -1.107,-0.411 -0.246,-0.274 -0.369,-0.728 -0.369,-1.362 v -3.296 h -0.69 v -0.643 l 0.69,-0.143 0.107,-1.595 h 0.857 v 1.595 h 1.368 z m 4.676,1.142 c 0,0.246 -0.008,0.458 -0.024,0.637 -0.016,0.179 -0.032,0.335 -0.048,0.47 h -2.915 c 0.032,0.674 0.176,1.17 0.434,1.487 0.258,0.317 0.629,0.476 1.113,0.476 0.167,0 0.317,-0.02 0.452,-0.06 0.135,-0.04 0.252,-0.087 0.351,-0.143 0.099,-0.056 0.182,-0.111 0.25,-0.167 0.067,-0.056 0.117,-0.099 0.149,-0.131 l 0.357,0.678 c -0.04,0.04 -0.099,0.097 -0.178,0.173 -0.079,0.075 -0.186,0.151 -0.321,0.226 -0.135,0.075 -0.301,0.141 -0.5,0.196 -0.199,0.055 -0.432,0.083 -0.702,0.083 -0.357,0 -0.68,-0.06 -0.97,-0.179 -0.29,-0.119 -0.535,-0.304 -0.738,-0.553 -0.202,-0.25 -0.359,-0.567 -0.47,-0.952 -0.111,-0.385 -0.167,-0.847 -0.167,-1.386 0,-0.508 0.058,-0.946 0.173,-1.315 0.115,-0.369 0.272,-0.672 0.47,-0.91 0.198,-0.238 0.428,-0.415 0.69,-0.53 0.262,-0.115 0.543,-0.172 0.845,-0.172 0.547,0 0.976,0.172 1.285,0.518 0.309,0.346 0.464,0.864 0.464,1.554 z m -1.808,-1.285 c -0.341,0 -0.615,0.143 -0.821,0.428 -0.206,0.286 -0.325,0.698 -0.357,1.238 h 2.082 c 0.008,-0.04 0.014,-0.097 0.018,-0.173 0.004,-0.075 0.006,-0.157 0.006,-0.244 0,-0.397 -0.079,-0.704 -0.238,-0.922 -0.159,-0.218 -0.389,-0.327 -0.69,-0.327 z m 5.604,0.202 c -0.024,-0.016 -0.075,-0.036 -0.155,-0.059 -0.08,-0.023 -0.186,-0.036 -0.321,-0.036 -0.301,0 -0.537,0.081 -0.708,0.244 -0.171,0.163 -0.292,0.339 -0.363,0.53 v 4.189 h -0.964 v -5.712 h 0.881 v 0.773 h 0.024 c 0.04,-0.111 0.091,-0.22 0.155,-0.327 0.063,-0.107 0.143,-0.202 0.238,-0.286 0.095,-0.083 0.208,-0.149 0.339,-0.196 0.131,-0.048 0.288,-0.071 0.47,-0.071 0.135,0 0.244,0.012 0.327,0.036 0.083,0.024 0.149,0.044 0.196,0.059 z m 1.916,4.867 h -0.964 v -5.712 h 0.964 z m -0.476,-7.092 c -0.198,0 -0.357,-0.063 -0.476,-0.19 -0.119,-0.127 -0.178,-0.293 -0.178,-0.5 0,-0.198 0.059,-0.361 0.178,-0.488 0.119,-0.127 0.278,-0.19 0.476,-0.19 0.19,0 0.345,0.063 0.464,0.19 0.119,0.127 0.178,0.29 0.178,0.488 0,0.206 -0.06,0.373 -0.178,0.5 -0.119,0.126 -0.273,0.19 -0.464,0.19 z m 5.95,7.092 h -0.881 v -0.643 h -0.024 c -0.024,0.048 -0.075,0.117 -0.155,0.208 -0.079,0.091 -0.18,0.179 -0.303,0.262 -0.123,0.083 -0.272,0.157 -0.446,0.22 -0.174,0.064 -0.369,0.095 -0.583,0.095 -0.254,0 -0.482,-0.038 -0.684,-0.113 -0.202,-0.075 -0.375,-0.196 -0.518,-0.363 -0.143,-0.167 -0.252,-0.383 -0.327,-0.649 -0.075,-0.266 -0.113,-0.593 -0.113,-0.982 v -3.749 h 0.964 v 3.677 c 0,0.476 0.077,0.815 0.232,1.017 0.155,0.202 0.395,0.303 0.72,0.303 0.278,0 0.512,-0.069 0.702,-0.208 0.19,-0.139 0.341,-0.276 0.452,-0.41 v -4.379 h 0.964 z m 4.475,0 v -3.677 c 0,-0.468 -0.067,-0.805 -0.202,-1.012 -0.135,-0.207 -0.353,-0.309 -0.654,-0.309 -0.159,0 -0.299,0.02 -0.422,0.059 -0.123,0.04 -0.232,0.089 -0.327,0.149 -0.095,0.06 -0.178,0.125 -0.25,0.196 -0.071,0.071 -0.131,0.135 -0.178,0.19 v 4.403 h -0.964 v -5.712 h 0.881 V 54.4 h 0.024 c 0.04,-0.064 0.099,-0.141 0.178,-0.232 0.079,-0.091 0.179,-0.179 0.298,-0.262 0.119,-0.083 0.258,-0.153 0.417,-0.208 0.159,-0.056 0.337,-0.083 0.536,-0.083 0.65,0 1.111,0.254 1.38,0.762 0.056,-0.079 0.131,-0.165 0.226,-0.256 0.095,-0.091 0.206,-0.174 0.333,-0.25 0.127,-0.075 0.27,-0.137 0.428,-0.184 0.159,-0.048 0.333,-0.071 0.524,-0.071 1.158,0 1.737,0.674 1.737,2.023 v 3.832 h -0.964 v -3.677 c 0,-0.468 -0.083,-0.805 -0.25,-1.012 -0.167,-0.207 -0.413,-0.309 -0.738,-0.309 -0.27,0 -0.494,0.065 -0.672,0.196 -0.178,0.131 -0.319,0.256 -0.422,0.375 0.016,0.087 0.028,0.181 0.036,0.28 0.008,0.099 0.012,0.204 0.012,0.315 v 3.832 H 140.6 Z m -74.958,7.074 h -1.166 v 4.927 h -0.964 v -4.927 h -0.69 v -0.643 l 0.69,-0.131 v -1.142 c 0,-0.309 0.044,-0.575 0.131,-0.797 0.087,-0.222 0.202,-0.405 0.345,-0.547 0.143,-0.143 0.309,-0.246 0.5,-0.309 0.19,-0.064 0.393,-0.095 0.607,-0.095 0.206,0 0.381,0.028 0.524,0.083 0.143,0.056 0.238,0.099 0.286,0.131 l -0.202,0.797 c -0.048,-0.032 -0.115,-0.065 -0.202,-0.101 -0.087,-0.036 -0.194,-0.053 -0.321,-0.053 -0.23,0 -0.405,0.071 -0.524,0.214 -0.119,0.143 -0.178,0.405 -0.178,0.785 v 1.023 h 1.285 z m 4.95,4.926 h -0.881 v -0.643 h -0.024 c -0.024,0.048 -0.075,0.117 -0.155,0.208 -0.079,0.091 -0.18,0.179 -0.303,0.262 -0.123,0.083 -0.272,0.157 -0.446,0.22 -0.174,0.063 -0.369,0.095 -0.583,0.095 -0.254,0 -0.482,-0.038 -0.684,-0.113 -0.202,-0.075 -0.375,-0.196 -0.518,-0.363 -0.143,-0.167 -0.252,-0.383 -0.327,-0.649 -0.075,-0.266 -0.113,-0.593 -0.113,-0.982 v -3.748 h 0.964 v 3.677 c 0,0.476 0.077,0.815 0.232,1.018 0.155,0.202 0.395,0.303 0.72,0.303 0.278,0 0.512,-0.069 0.702,-0.208 0.19,-0.139 0.341,-0.276 0.452,-0.41 v -4.379 h 0.964 z m -2.368,-7.354 c 0,0.183 -0.055,0.329 -0.167,0.44 -0.111,0.111 -0.246,0.167 -0.405,0.167 -0.159,0 -0.294,-0.055 -0.405,-0.167 -0.111,-0.111 -0.167,-0.258 -0.167,-0.44 0,-0.182 0.055,-0.329 0.167,-0.44 0.112,-0.111 0.246,-0.167 0.405,-0.167 0.159,0 0.293,0.056 0.405,0.167 0.111,0.111 0.167,0.258 0.167,0.44 z m 1.833,0 c 0,0.183 -0.056,0.329 -0.167,0.44 -0.111,0.111 -0.246,0.167 -0.405,0.167 -0.159,0 -0.293,-0.055 -0.405,-0.167 -0.111,-0.111 -0.167,-0.258 -0.167,-0.44 0,-0.182 0.056,-0.329 0.167,-0.44 0.111,-0.111 0.246,-0.167 0.405,-0.167 0.159,0 0.294,0.056 0.405,0.167 0.111,0.111 0.167,0.258 0.167,0.44 z m 4.521,2.487 c -0.024,-0.016 -0.075,-0.036 -0.155,-0.06 -0.079,-0.024 -0.186,-0.036 -0.321,-0.036 -0.301,0 -0.537,0.081 -0.708,0.244 -0.171,0.163 -0.292,0.339 -0.363,0.53 v 4.189 h -0.964 v -5.712 h 0.881 v 0.773 h 0.024 c 0.04,-0.111 0.091,-0.22 0.155,-0.327 0.064,-0.107 0.143,-0.202 0.238,-0.286 0.095,-0.084 0.208,-0.149 0.339,-0.196 0.131,-0.048 0.288,-0.071 0.47,-0.071 0.135,0 0.244,0.012 0.327,0.036 0.083,0.024 0.149,0.044 0.196,0.06 z m 11.425,-3.344 -1.999,8.211 h -0.928 l -1.25,-5.165 c -0.087,-0.357 -0.163,-0.69 -0.226,-1 -0.063,-0.31 -0.099,-0.555 -0.107,-0.738 h -0.024 c 0,0.183 -0.032,0.424 -0.095,0.726 -0.063,0.302 -0.139,0.631 -0.226,0.988 l -1.273,5.188 h -0.928 l -1.952,-8.211 h 1.107 l 1.023,4.998 c 0.079,0.381 0.149,0.74 0.208,1.077 0.059,0.337 0.093,0.597 0.101,0.78 h 0.024 c 0.008,-0.183 0.05,-0.448 0.125,-0.797 0.075,-0.349 0.157,-0.71 0.244,-1.083 l 1.214,-4.974 h 0.988 l 1.19,4.998 c 0.087,0.381 0.167,0.74 0.238,1.077 0.071,0.337 0.111,0.597 0.119,0.78 H 83.6 c 0.008,-0.183 0.044,-0.45 0.107,-0.803 0.063,-0.353 0.135,-0.72 0.214,-1.101 l 1.035,-4.95 h 1.047 z m 0.321,5.355 c 0,-0.524 0.062,-0.976 0.185,-1.357 0.123,-0.381 0.289,-0.692 0.5,-0.934 0.21,-0.242 0.452,-0.421 0.726,-0.536 0.274,-0.115 0.565,-0.173 0.875,-0.173 0.317,0 0.611,0.057 0.881,0.173 0.27,0.115 0.504,0.294 0.702,0.536 0.198,0.242 0.355,0.553 0.47,0.934 0.115,0.381 0.173,0.833 0.173,1.357 0,0.531 -0.06,0.988 -0.178,1.368 -0.119,0.381 -0.284,0.692 -0.494,0.934 -0.21,0.242 -0.454,0.419 -0.732,0.53 -0.278,0.111 -0.571,0.167 -0.881,0.167 -0.317,0 -0.611,-0.055 -0.881,-0.167 -0.27,-0.112 -0.504,-0.288 -0.702,-0.53 -0.198,-0.242 -0.355,-0.551 -0.47,-0.928 -0.117,-0.376 -0.174,-0.834 -0.174,-1.374 z m 3.51,0 c 0,-0.762 -0.111,-1.315 -0.333,-1.66 -0.222,-0.345 -0.531,-0.518 -0.928,-0.518 -0.397,0 -0.704,0.173 -0.922,0.518 -0.218,0.345 -0.327,0.898 -0.327,1.66 0,0.762 0.111,1.309 0.333,1.642 0.222,0.333 0.532,0.5 0.928,0.5 0.396,0 0.704,-0.167 0.922,-0.5 0.218,-0.333 0.327,-0.88 0.327,-1.642 z m 5.332,2.856 v -3.677 c 0,-0.484 -0.081,-0.831 -0.244,-1.041 -0.163,-0.21 -0.411,-0.315 -0.744,-0.315 -0.286,0 -0.524,0.071 -0.714,0.214 -0.19,0.143 -0.341,0.282 -0.452,0.416 v 4.403 h -0.964 v -8.413 l 0.964,-0.107 v 3.391 h 0.024 c 0.032,-0.048 0.081,-0.111 0.149,-0.19 0.067,-0.079 0.161,-0.159 0.28,-0.238 0.119,-0.079 0.264,-0.149 0.434,-0.208 0.171,-0.059 0.371,-0.089 0.601,-0.089 0.5,0 0.896,0.163 1.19,0.488 0.294,0.325 0.44,0.865 0.44,1.618 v 3.748 z m 5.521,0 v -3.677 c 0,-0.484 -0.081,-0.831 -0.244,-1.041 -0.163,-0.21 -0.411,-0.315 -0.744,-0.315 -0.286,0 -0.524,0.071 -0.714,0.214 -0.19,0.143 -0.341,0.282 -0.452,0.416 v 4.403 h -0.964 v -5.712 h 0.881 v 0.643 h 0.024 c 0.024,-0.048 0.075,-0.117 0.155,-0.208 0.079,-0.091 0.182,-0.178 0.309,-0.262 0.127,-0.083 0.278,-0.157 0.452,-0.22 0.174,-0.063 0.373,-0.095 0.595,-0.095 0.254,0 0.484,0.038 0.69,0.113 0.206,0.075 0.381,0.196 0.524,0.363 0.143,0.167 0.254,0.383 0.333,0.648 0.079,0.266 0.119,0.593 0.119,0.982 v 3.748 z m 6.069,-3.784 c 0,0.246 -0.008,0.458 -0.024,0.637 -0.016,0.179 -0.032,0.335 -0.048,0.47 h -2.916 c 0.032,0.674 0.177,1.17 0.434,1.487 0.258,0.317 0.629,0.476 1.113,0.476 0.167,0 0.317,-0.02 0.452,-0.06 0.135,-0.04 0.252,-0.087 0.351,-0.143 0.099,-0.056 0.182,-0.111 0.25,-0.167 0.067,-0.055 0.117,-0.099 0.149,-0.131 l 0.357,0.678 c -0.04,0.04 -0.099,0.097 -0.178,0.173 -0.079,0.075 -0.186,0.151 -0.321,0.226 -0.135,0.075 -0.301,0.141 -0.5,0.196 -0.198,0.055 -0.432,0.083 -0.702,0.083 -0.357,0 -0.68,-0.06 -0.97,-0.178 -0.29,-0.119 -0.535,-0.303 -0.738,-0.553 -0.203,-0.25 -0.359,-0.567 -0.47,-0.952 -0.111,-0.385 -0.167,-0.847 -0.167,-1.386 0,-0.508 0.057,-0.946 0.173,-1.315 0.115,-0.369 0.272,-0.672 0.47,-0.91 0.198,-0.238 0.428,-0.414 0.69,-0.53 0.262,-0.115 0.543,-0.173 0.845,-0.173 0.547,0 0.976,0.173 1.285,0.518 0.309,0.345 0.465,0.864 0.465,1.554 z m -1.809,-1.285 c -0.341,0 -0.615,0.143 -0.821,0.428 -0.206,0.285 -0.325,0.698 -0.357,1.238 h 2.083 c 0.008,-0.04 0.014,-0.097 0.018,-0.173 0.004,-0.075 0.006,-0.157 0.006,-0.244 0,-0.397 -0.079,-0.704 -0.238,-0.922 -0.159,-0.218 -0.389,-0.327 -0.691,-0.327 z m 6.212,5.069 v -3.677 c 0,-0.484 -0.081,-0.831 -0.244,-1.041 -0.163,-0.21 -0.411,-0.315 -0.744,-0.315 -0.286,0 -0.524,0.071 -0.714,0.214 -0.19,0.143 -0.341,0.282 -0.452,0.416 v 4.403 h -0.964 v -5.712 h 0.881 v 0.643 h 0.024 c 0.024,-0.048 0.075,-0.117 0.155,-0.208 0.079,-0.091 0.183,-0.178 0.309,-0.262 0.126,-0.084 0.278,-0.157 0.452,-0.22 0.174,-0.063 0.373,-0.095 0.595,-0.095 0.254,0 0.484,0.038 0.69,0.113 0.206,0.075 0.381,0.196 0.524,0.363 0.143,0.167 0.254,0.383 0.333,0.648 0.079,0.266 0.119,0.593 0.119,0.982 v 3.748 z m 2.249,-0.678 c 0,-0.214 0.062,-0.375 0.185,-0.482 0.123,-0.107 0.268,-0.161 0.434,-0.161 0.23,0 0.418,0.095 0.565,0.286 0.147,0.19 0.22,0.484 0.22,0.881 0,0.27 -0.042,0.506 -0.125,0.708 -0.083,0.202 -0.192,0.377 -0.327,0.524 -0.135,0.147 -0.284,0.268 -0.446,0.363 -0.163,0.095 -0.323,0.171 -0.482,0.226 l -0.202,-0.416 c 0.246,-0.127 0.448,-0.28 0.607,-0.458 0.159,-0.179 0.246,-0.442 0.262,-0.791 h -0.036 c -0.183,0 -0.337,-0.057 -0.464,-0.173 -0.127,-0.116 -0.191,-0.285 -0.191,-0.507 z m 8.247,-6.271 c -0.032,-0.032 -0.085,-0.077 -0.161,-0.137 -0.075,-0.059 -0.171,-0.117 -0.286,-0.172 -0.115,-0.056 -0.25,-0.103 -0.405,-0.143 -0.155,-0.04 -0.327,-0.059 -0.518,-0.059 -0.357,0 -0.627,0.095 -0.809,0.286 -0.182,0.19 -0.274,0.412 -0.274,0.666 0,0.159 0.022,0.305 0.066,0.44 0.044,0.135 0.111,0.268 0.202,0.399 0.091,0.131 0.204,0.262 0.339,0.393 0.135,0.131 0.297,0.272 0.488,0.423 l 0.666,0.547 c 0.19,0.159 0.371,0.321 0.541,0.488 0.171,0.167 0.317,0.343 0.44,0.53 0.123,0.187 0.22,0.389 0.292,0.607 0.071,0.218 0.107,0.462 0.107,0.732 0,0.627 -0.194,1.132 -0.583,1.517 -0.389,0.385 -0.956,0.577 -1.702,0.577 -0.293,0 -0.553,-0.028 -0.779,-0.083 -0.226,-0.056 -0.423,-0.123 -0.589,-0.202 -0.167,-0.079 -0.305,-0.161 -0.416,-0.244 -0.111,-0.083 -0.194,-0.153 -0.25,-0.208 l 0.416,-0.904 c 0.048,0.048 0.119,0.111 0.214,0.19 0.095,0.079 0.21,0.159 0.345,0.238 0.135,0.079 0.288,0.147 0.458,0.202 0.171,0.055 0.363,0.083 0.577,0.083 0.405,0 0.716,-0.101 0.934,-0.303 0.218,-0.202 0.327,-0.442 0.327,-0.72 0,-0.174 -0.022,-0.333 -0.065,-0.476 -0.044,-0.143 -0.107,-0.28 -0.19,-0.411 -0.083,-0.131 -0.188,-0.26 -0.315,-0.387 -0.127,-0.127 -0.278,-0.262 -0.452,-0.405 l -0.666,-0.559 c -0.23,-0.19 -0.432,-0.371 -0.607,-0.542 -0.174,-0.17 -0.323,-0.349 -0.446,-0.535 -0.123,-0.186 -0.216,-0.389 -0.28,-0.607 -0.063,-0.218 -0.095,-0.47 -0.095,-0.756 0,-0.262 0.05,-0.508 0.149,-0.738 0.099,-0.23 0.24,-0.428 0.422,-0.595 0.183,-0.167 0.403,-0.298 0.66,-0.393 0.258,-0.095 0.549,-0.143 0.875,-0.143 0.27,0 0.508,0.026 0.714,0.077 0.206,0.052 0.383,0.111 0.53,0.178 0.147,0.068 0.264,0.137 0.351,0.208 0.087,0.071 0.155,0.123 0.202,0.155 z m 4.189,2.023 h -1.249 v 3.165 c 0,0.405 0.052,0.68 0.155,0.827 0.103,0.147 0.278,0.22 0.524,0.22 0.143,0 0.266,-0.02 0.369,-0.06 0.103,-0.04 0.179,-0.075 0.226,-0.107 L 126,71.362 c -0.04,0.032 -0.135,0.081 -0.286,0.149 -0.151,0.067 -0.353,0.101 -0.607,0.101 -0.492,0 -0.861,-0.137 -1.107,-0.411 -0.246,-0.274 -0.369,-0.728 -0.369,-1.363 v -3.296 h -0.69 v -0.643 l 0.69,-0.143 0.107,-1.595 h 0.857 v 1.595 h 1.368 z m 0.761,3.474 c 0,-0.333 0.063,-0.611 0.19,-0.833 0.127,-0.222 0.298,-0.403 0.512,-0.542 0.214,-0.139 0.466,-0.238 0.756,-0.298 0.29,-0.059 0.597,-0.089 0.922,-0.089 h 0.298 V 67.71 c 0,-0.484 -0.085,-0.817 -0.256,-1 -0.171,-0.182 -0.411,-0.274 -0.72,-0.274 -0.286,0 -0.524,0.062 -0.714,0.184 -0.19,0.123 -0.341,0.232 -0.452,0.327 l -0.405,-0.643 c 0.063,-0.063 0.145,-0.135 0.244,-0.214 0.099,-0.079 0.22,-0.155 0.363,-0.226 0.143,-0.071 0.305,-0.131 0.488,-0.179 0.183,-0.048 0.389,-0.071 0.619,-0.071 0.587,0 1.031,0.163 1.333,0.488 0.302,0.325 0.452,0.849 0.452,1.571 v 2.606 c 0,0.246 0.008,0.486 0.024,0.72 0.016,0.234 0.032,0.391 0.048,0.47 h -0.916 l -0.036,-0.631 h -0.024 c -0.032,0.071 -0.079,0.153 -0.143,0.244 -0.063,0.091 -0.143,0.175 -0.238,0.25 -0.095,0.075 -0.21,0.141 -0.345,0.196 -0.135,0.055 -0.293,0.083 -0.476,0.083 -0.214,0 -0.414,-0.04 -0.601,-0.119 -0.187,-0.079 -0.349,-0.19 -0.488,-0.333 -0.139,-0.143 -0.246,-0.311 -0.321,-0.506 -0.076,-0.192 -0.114,-0.404 -0.114,-0.635 z m 1.726,0.774 c 0.135,0 0.254,-0.02 0.357,-0.06 0.103,-0.04 0.192,-0.087 0.268,-0.143 0.075,-0.055 0.139,-0.117 0.19,-0.185 0.051,-0.067 0.097,-0.125 0.137,-0.173 V 68.97 l -0.309,0.012 c -0.46,0.016 -0.809,0.095 -1.047,0.238 -0.238,0.143 -0.357,0.373 -0.357,0.69 0,0.294 0.067,0.514 0.202,0.66 0.134,0.149 0.321,0.222 0.559,0.222 z m 3.094,-2.094 c 0,-0.579 0.075,-1.063 0.226,-1.452 0.151,-0.389 0.345,-0.702 0.583,-0.94 0.238,-0.238 0.508,-0.407 0.809,-0.506 0.301,-0.099 0.603,-0.149 0.904,-0.149 0.182,0 0.341,0.014 0.476,0.042 0.135,0.028 0.246,0.061 0.333,0.101 v -2.737 l 0.964,-0.107 v 8.52 h -0.881 v -0.607 h -0.024 c -0.024,0.048 -0.067,0.113 -0.131,0.196 -0.063,0.083 -0.151,0.167 -0.262,0.25 -0.111,0.083 -0.25,0.155 -0.417,0.214 -0.167,0.059 -0.361,0.089 -0.583,0.089 -0.27,0 -0.526,-0.053 -0.768,-0.161 -0.242,-0.107 -0.454,-0.278 -0.637,-0.512 -0.182,-0.234 -0.327,-0.535 -0.434,-0.904 -0.105,-0.368 -0.158,-0.814 -0.158,-1.337 z m 2.261,2.058 c 0.151,0 0.286,-0.02 0.405,-0.06 0.119,-0.04 0.222,-0.089 0.309,-0.149 0.087,-0.059 0.161,-0.121 0.22,-0.184 0.06,-0.063 0.105,-0.119 0.137,-0.167 v -3.522 c -0.087,-0.055 -0.188,-0.103 -0.303,-0.143 -0.115,-0.04 -0.26,-0.06 -0.434,-0.06 -0.222,0 -0.43,0.038 -0.625,0.113 -0.194,0.075 -0.363,0.2 -0.506,0.375 -0.143,0.174 -0.256,0.401 -0.339,0.678 -0.083,0.278 -0.125,0.619 -0.125,1.023 0,0.397 0.034,0.728 0.101,0.994 0.067,0.266 0.161,0.48 0.28,0.643 0.119,0.163 0.254,0.28 0.405,0.351 0.15,0.073 0.308,0.108 0.475,0.108 z m 5.95,-4.212 h -1.25 v 3.165 c 0,0.405 0.052,0.68 0.155,0.827 0.103,0.147 0.278,0.22 0.524,0.22 0.143,0 0.266,-0.02 0.369,-0.06 0.103,-0.04 0.178,-0.075 0.226,-0.107 l 0.131,0.773 c -0.04,0.032 -0.135,0.081 -0.286,0.149 -0.151,0.067 -0.353,0.101 -0.607,0.101 -0.492,0 -0.861,-0.137 -1.107,-0.411 -0.246,-0.274 -0.369,-0.728 -0.369,-1.363 v -3.296 h -0.69 v -0.643 l 0.69,-0.143 0.107,-1.595 h 0.857 v 1.595 h 1.368 z m 4.676,1.142 c 0,0.246 -0.008,0.458 -0.024,0.637 -0.016,0.179 -0.032,0.335 -0.048,0.47 h -2.916 c 0.032,0.674 0.176,1.17 0.434,1.487 0.258,0.317 0.629,0.476 1.113,0.476 0.167,0 0.317,-0.02 0.452,-0.06 0.135,-0.04 0.252,-0.087 0.351,-0.143 0.099,-0.056 0.182,-0.111 0.25,-0.167 0.067,-0.055 0.117,-0.099 0.149,-0.131 l 0.357,0.678 c -0.04,0.04 -0.099,0.097 -0.178,0.173 -0.079,0.075 -0.186,0.151 -0.321,0.226 -0.135,0.075 -0.301,0.141 -0.5,0.196 -0.198,0.055 -0.432,0.083 -0.702,0.083 -0.357,0 -0.68,-0.06 -0.97,-0.178 -0.29,-0.119 -0.535,-0.303 -0.738,-0.553 -0.203,-0.25 -0.359,-0.567 -0.47,-0.952 -0.111,-0.385 -0.167,-0.847 -0.167,-1.386 0,-0.508 0.058,-0.946 0.173,-1.315 0.115,-0.369 0.272,-0.672 0.47,-0.91 0.198,-0.238 0.428,-0.414 0.69,-0.53 0.262,-0.115 0.543,-0.173 0.845,-0.173 0.547,0 0.976,0.173 1.285,0.518 0.311,0.346 0.465,0.864 0.465,1.554 z m -1.808,-1.285 c -0.341,0 -0.615,0.143 -0.821,0.428 -0.206,0.285 -0.325,0.698 -0.357,1.238 h 2.083 c 0.008,-0.04 0.014,-0.097 0.018,-0.173 0.004,-0.075 0.006,-0.157 0.006,-0.244 0,-0.397 -0.079,-0.704 -0.238,-0.922 -0.16,-0.218 -0.39,-0.327 -0.691,-0.327 z m 6.211,5.069 v -3.677 c 0,-0.484 -0.081,-0.831 -0.244,-1.041 -0.163,-0.21 -0.411,-0.315 -0.744,-0.315 -0.286,0 -0.524,0.071 -0.714,0.214 -0.19,0.143 -0.341,0.282 -0.452,0.416 v 4.403 h -0.964 v -5.712 h 0.881 v 0.643 h 0.024 c 0.024,-0.048 0.075,-0.117 0.155,-0.208 0.079,-0.091 0.182,-0.178 0.309,-0.262 0.127,-0.083 0.278,-0.157 0.452,-0.22 0.174,-0.063 0.373,-0.095 0.595,-0.095 0.254,0 0.484,0.038 0.69,0.113 0.206,0.075 0.381,0.196 0.524,0.363 0.143,0.167 0.254,0.383 0.333,0.648 0.079,0.266 0.119,0.593 0.119,0.982 v 3.748 z m 4.844,-4.926 h -1.249 v 3.165 c 0,0.405 0.052,0.68 0.155,0.827 0.103,0.147 0.278,0.22 0.524,0.22 0.143,0 0.266,-0.02 0.369,-0.06 0.103,-0.04 0.179,-0.075 0.226,-0.107 l 0.131,0.773 c -0.04,0.032 -0.135,0.081 -0.286,0.149 -0.151,0.067 -0.353,0.101 -0.607,0.101 -0.492,0 -0.861,-0.137 -1.107,-0.411 -0.246,-0.274 -0.369,-0.728 -0.369,-1.363 v -3.296 h -0.69 v -0.643 l 0.69,-0.143 0.107,-1.595 h 0.857 v 1.595 h 1.368 z m 7.675,-0.786 -1.737,5.712 h -0.857 l -0.583,-1.999 c -0.087,-0.286 -0.161,-0.551 -0.22,-0.797 -0.059,-0.246 -0.097,-0.48 -0.113,-0.702 H 157.7 c -0.016,0.222 -0.059,0.46 -0.131,0.714 -0.071,0.254 -0.155,0.52 -0.25,0.797 l -0.654,1.987 h -0.821 l -1.797,-5.712 h 1.035 l 0.857,3.237 c 0.079,0.301 0.149,0.581 0.208,0.839 0.06,0.258 0.093,0.502 0.101,0.732 h 0.024 c 0.024,-0.23 0.073,-0.47 0.149,-0.72 0.075,-0.25 0.161,-0.522 0.256,-0.815 l 0.619,-1.868 -0.428,-1.404 h 1 l 0.869,3.153 c 0.087,0.325 0.167,0.631 0.238,0.916 0.071,0.285 0.111,0.532 0.119,0.738 h 0.024 c 0.016,-0.206 0.055,-0.454 0.119,-0.744 0.064,-0.289 0.139,-0.593 0.226,-0.91 l 0.845,-3.153 h 0.926 z m 1.857,5.712 h -0.964 v -5.712 h 0.964 z m -0.476,-7.092 c -0.198,0 -0.357,-0.063 -0.476,-0.19 -0.119,-0.127 -0.179,-0.293 -0.179,-0.5 0,-0.198 0.06,-0.361 0.179,-0.488 0.119,-0.127 0.278,-0.19 0.476,-0.19 0.19,0 0.345,0.063 0.464,0.19 0.119,0.127 0.178,0.29 0.178,0.488 0,0.206 -0.059,0.373 -0.178,0.5 -0.119,0.127 -0.274,0.19 -0.464,0.19 z m 5.129,2.487 c -0.024,-0.024 -0.061,-0.059 -0.113,-0.107 -0.052,-0.048 -0.117,-0.095 -0.196,-0.143 -0.079,-0.048 -0.174,-0.089 -0.286,-0.125 -0.111,-0.036 -0.238,-0.053 -0.381,-0.053 -0.206,0 -0.399,0.038 -0.577,0.113 -0.179,0.075 -0.333,0.196 -0.464,0.363 -0.131,0.167 -0.234,0.383 -0.309,0.649 -0.075,0.266 -0.113,0.589 -0.113,0.97 0,0.421 0.034,0.773 0.101,1.059 0.067,0.286 0.161,0.514 0.28,0.684 0.119,0.171 0.264,0.294 0.434,0.369 0.171,0.075 0.359,0.113 0.565,0.113 0.294,0 0.518,-0.052 0.672,-0.155 0.155,-0.103 0.264,-0.186 0.327,-0.25 l 0.393,0.666 c -0.04,0.048 -0.097,0.105 -0.173,0.173 -0.075,0.068 -0.173,0.133 -0.292,0.196 -0.119,0.063 -0.264,0.117 -0.434,0.161 -0.171,0.044 -0.367,0.065 -0.589,0.065 -0.317,0 -0.615,-0.052 -0.893,-0.155 -0.278,-0.103 -0.52,-0.274 -0.726,-0.512 -0.206,-0.238 -0.369,-0.547 -0.488,-0.928 -0.119,-0.381 -0.178,-0.853 -0.178,-1.416 0,-0.547 0.071,-1.012 0.214,-1.392 0.143,-0.381 0.329,-0.688 0.559,-0.922 0.23,-0.234 0.486,-0.405 0.768,-0.512 0.282,-0.107 0.565,-0.161 0.851,-0.161 0.214,0 0.403,0.02 0.565,0.06 0.163,0.04 0.301,0.089 0.416,0.149 0.115,0.06 0.21,0.123 0.286,0.19 0.075,0.067 0.137,0.125 0.184,0.173 z m 3.57,1.511 1.964,3.094 h -1.154 l -1.607,-2.666 h -0.393 v 2.666 h -0.964 v -8.413 l 0.964,-0.107 v 5.034 h 0.405 l 1.535,-2.225 h 1.142 z m 3.772,1.761 c 0,0.238 0.034,0.405 0.101,0.5 0.067,0.095 0.184,0.143 0.351,0.143 0.087,0 0.161,-0.008 0.22,-0.024 0.059,-0.016 0.105,-0.032 0.137,-0.048 l 0.083,0.714 c -0.048,0.024 -0.135,0.056 -0.262,0.095 -0.127,0.04 -0.298,0.06 -0.512,0.06 -0.325,0 -0.587,-0.099 -0.785,-0.298 -0.198,-0.199 -0.298,-0.551 -0.298,-1.059 v -7.164 l 0.964,-0.107 v 7.188 z m 5.759,1.333 h -0.881 v -0.643 h -0.024 c -0.024,0.048 -0.075,0.117 -0.155,0.208 -0.079,0.091 -0.18,0.179 -0.303,0.262 -0.123,0.083 -0.272,0.157 -0.446,0.22 -0.174,0.063 -0.369,0.095 -0.583,0.095 -0.254,0 -0.482,-0.038 -0.684,-0.113 -0.202,-0.075 -0.375,-0.196 -0.518,-0.363 -0.143,-0.167 -0.252,-0.383 -0.327,-0.649 -0.075,-0.266 -0.113,-0.593 -0.113,-0.982 v -3.748 h 0.964 v 3.677 c 0,0.476 0.077,0.815 0.232,1.018 0.155,0.202 0.395,0.303 0.72,0.303 0.278,0 0.512,-0.069 0.702,-0.208 0.19,-0.139 0.341,-0.276 0.452,-0.41 v -4.379 h 0.964 z m 4.594,0 v -3.677 c 0,-0.484 -0.081,-0.831 -0.244,-1.041 -0.163,-0.21 -0.411,-0.315 -0.744,-0.315 -0.286,0 -0.524,0.071 -0.714,0.214 -0.19,0.143 -0.341,0.282 -0.452,0.416 v 4.403 h -0.964 v -5.712 h 0.881 v 0.643 h 0.024 c 0.024,-0.048 0.075,-0.117 0.155,-0.208 0.079,-0.091 0.182,-0.178 0.309,-0.262 0.127,-0.083 0.278,-0.157 0.452,-0.22 0.174,-0.063 0.373,-0.095 0.595,-0.095 0.254,0 0.484,0.038 0.69,0.113 0.206,0.075 0.381,0.196 0.524,0.363 0.143,0.167 0.254,0.383 0.333,0.648 0.079,0.266 0.119,0.593 0.119,0.982 v 3.748 z m 6.497,-4.962 h -0.714 c 0.183,0.301 0.274,0.643 0.274,1.023 0,0.301 -0.05,0.573 -0.149,0.815 -0.099,0.242 -0.238,0.446 -0.416,0.613 -0.179,0.167 -0.389,0.294 -0.631,0.381 -0.242,0.087 -0.502,0.131 -0.779,0.131 -0.055,0 -0.107,0 -0.155,0 -0.048,0 -0.099,-0.004 -0.155,-0.012 -0.095,0.04 -0.194,0.103 -0.298,0.19 -0.103,0.087 -0.155,0.202 -0.155,0.345 0,0.119 0.046,0.216 0.137,0.292 0.091,0.075 0.24,0.113 0.446,0.113 h 0.726 c 0.27,0 0.52,0.028 0.75,0.083 0.23,0.056 0.43,0.145 0.601,0.268 0.171,0.123 0.303,0.28 0.399,0.47 0.096,0.19 0.143,0.421 0.143,0.69 0,0.309 -0.065,0.591 -0.196,0.845 -0.131,0.254 -0.315,0.472 -0.553,0.655 -0.238,0.182 -0.528,0.325 -0.869,0.428 -0.341,0.103 -0.722,0.155 -1.142,0.155 -0.611,0 -1.075,-0.133 -1.392,-0.399 -0.317,-0.266 -0.476,-0.649 -0.476,-1.148 0,-0.214 0.038,-0.399 0.113,-0.553 0.075,-0.155 0.165,-0.29 0.268,-0.405 0.103,-0.115 0.208,-0.206 0.315,-0.274 0.107,-0.067 0.192,-0.121 0.256,-0.161 V 71.03 c -0.246,-0.182 -0.369,-0.448 -0.369,-0.797 0,-0.151 0.03,-0.282 0.089,-0.393 0.059,-0.111 0.127,-0.202 0.202,-0.274 0.075,-0.071 0.151,-0.129 0.226,-0.173 0.075,-0.044 0.133,-0.073 0.173,-0.089 V 69.28 c -0.294,-0.135 -0.529,-0.347 -0.708,-0.637 -0.178,-0.289 -0.268,-0.66 -0.268,-1.113 0,-0.317 0.052,-0.597 0.155,-0.839 0.103,-0.242 0.242,-0.442 0.416,-0.601 0.174,-0.159 0.379,-0.278 0.613,-0.357 0.234,-0.079 0.486,-0.119 0.756,-0.119 0.27,0 0.524,0.048 0.762,0.143 h 1.737 z m -2.653,4.784 c -0.167,0 -0.313,-0.012 -0.44,-0.036 -0.071,0.04 -0.141,0.087 -0.208,0.143 -0.068,0.055 -0.129,0.123 -0.184,0.202 -0.055,0.079 -0.101,0.173 -0.137,0.28 -0.036,0.107 -0.054,0.232 -0.054,0.375 0,0.611 0.337,0.916 1.011,0.916 0.579,0 1.008,-0.113 1.285,-0.339 0.278,-0.226 0.417,-0.486 0.417,-0.78 0,-0.278 -0.087,-0.474 -0.262,-0.589 -0.174,-0.115 -0.409,-0.173 -0.702,-0.173 h -0.726 z m 1.273,-3.761 c 0,-0.413 -0.097,-0.706 -0.292,-0.881 -0.194,-0.174 -0.422,-0.262 -0.684,-0.262 -0.278,0 -0.516,0.087 -0.714,0.262 -0.198,0.174 -0.297,0.468 -0.297,0.881 0,0.412 0.099,0.706 0.297,0.881 0.198,0.174 0.428,0.262 0.69,0.262 0.278,0 0.514,-0.087 0.708,-0.262 0.195,-0.175 0.292,-0.468 0.292,-0.881 z M 67.236,83.47 h -0.881 v -0.643 h -0.024 c -0.024,0.048 -0.075,0.117 -0.155,0.208 -0.079,0.091 -0.18,0.179 -0.303,0.262 -0.123,0.083 -0.272,0.157 -0.446,0.22 -0.174,0.063 -0.369,0.095 -0.583,0.095 -0.254,0 -0.482,-0.038 -0.684,-0.113 -0.202,-0.075 -0.375,-0.196 -0.518,-0.363 -0.143,-0.167 -0.252,-0.383 -0.327,-0.649 -0.075,-0.266 -0.113,-0.593 -0.113,-0.982 v -3.748 h 0.964 v 3.677 c 0,0.476 0.077,0.815 0.232,1.018 0.155,0.202 0.395,0.303 0.72,0.303 0.278,0 0.512,-0.069 0.702,-0.208 0.19,-0.139 0.341,-0.276 0.452,-0.41 v -4.379 h 0.964 z m 4.594,0 v -3.677 c 0,-0.484 -0.081,-0.831 -0.244,-1.041 -0.163,-0.21 -0.411,-0.315 -0.744,-0.315 -0.286,0 -0.524,0.071 -0.714,0.214 -0.19,0.143 -0.341,0.282 -0.452,0.416 v 4.403 h -0.964 v -5.712 h 0.881 v 0.643 h 0.024 c 0.024,-0.048 0.075,-0.117 0.155,-0.208 0.079,-0.091 0.182,-0.178 0.309,-0.262 0.127,-0.084 0.278,-0.157 0.452,-0.22 0.174,-0.063 0.373,-0.095 0.595,-0.095 0.254,0 0.484,0.038 0.69,0.113 0.206,0.075 0.381,0.196 0.524,0.363 0.143,0.167 0.254,0.383 0.333,0.648 0.079,0.266 0.119,0.593 0.119,0.982 v 3.748 z m 2.142,-2.772 c 0,-0.579 0.075,-1.063 0.226,-1.452 0.151,-0.389 0.345,-0.702 0.583,-0.94 0.238,-0.238 0.508,-0.407 0.809,-0.506 0.301,-0.099 0.603,-0.149 0.904,-0.149 0.183,0 0.341,0.014 0.476,0.042 0.135,0.028 0.246,0.061 0.333,0.101 v -2.737 l 0.964,-0.107 v 8.52 h -0.881 v -0.607 h -0.024 c -0.024,0.048 -0.067,0.113 -0.131,0.196 -0.064,0.083 -0.151,0.167 -0.262,0.25 -0.111,0.083 -0.25,0.155 -0.416,0.214 -0.167,0.059 -0.361,0.089 -0.583,0.089 -0.27,0 -0.526,-0.053 -0.768,-0.161 -0.242,-0.107 -0.454,-0.278 -0.637,-0.512 -0.183,-0.234 -0.327,-0.535 -0.434,-0.904 -0.106,-0.368 -0.159,-0.814 -0.159,-1.337 z m 2.261,2.058 c 0.151,0 0.286,-0.02 0.405,-0.06 0.119,-0.04 0.222,-0.089 0.309,-0.149 0.087,-0.059 0.161,-0.121 0.22,-0.184 0.059,-0.063 0.105,-0.119 0.137,-0.167 v -3.522 c -0.087,-0.055 -0.188,-0.103 -0.303,-0.143 -0.115,-0.04 -0.26,-0.06 -0.434,-0.06 -0.222,0 -0.43,0.038 -0.625,0.113 -0.194,0.075 -0.363,0.2 -0.506,0.375 -0.143,0.175 -0.256,0.401 -0.339,0.678 -0.083,0.278 -0.125,0.619 -0.125,1.023 0,0.397 0.034,0.728 0.101,0.994 0.067,0.266 0.161,0.48 0.28,0.643 0.119,0.163 0.254,0.28 0.405,0.351 0.149,0.073 0.308,0.108 0.475,0.108 z m 10.543,-5.402 c 0,0.286 -0.036,0.535 -0.107,0.75 -0.071,0.214 -0.169,0.399 -0.291,0.553 -0.123,0.155 -0.266,0.28 -0.428,0.375 -0.163,0.095 -0.331,0.167 -0.506,0.214 v 0.024 c 0.214,0.04 0.415,0.115 0.601,0.226 0.187,0.111 0.349,0.25 0.488,0.417 0.139,0.167 0.25,0.363 0.333,0.589 0.083,0.226 0.125,0.474 0.125,0.744 0,0.325 -0.056,0.623 -0.167,0.892 -0.111,0.27 -0.284,0.504 -0.518,0.702 -0.234,0.198 -0.53,0.353 -0.886,0.464 -0.357,0.111 -0.781,0.167 -1.273,0.167 H 82.469 V 75.26 h 1.583 c 0.484,0 0.898,0.05 1.244,0.149 0.345,0.099 0.629,0.24 0.851,0.423 0.222,0.183 0.383,0.403 0.482,0.66 0.097,0.257 0.147,0.544 0.147,0.862 z m -1.047,0.035 c 0,-0.381 -0.135,-0.694 -0.405,-0.94 -0.27,-0.246 -0.694,-0.369 -1.273,-0.369 h -0.547 v 2.832 h 0.535 c 0.555,0 0.976,-0.135 1.261,-0.405 0.286,-0.269 0.429,-0.642 0.429,-1.118 z m 0.154,3.785 c 0,-0.444 -0.145,-0.795 -0.434,-1.053 -0.29,-0.258 -0.704,-0.387 -1.244,-0.387 h -0.702 v 2.88 h 0.643 c 0.611,0 1.053,-0.121 1.327,-0.363 0.274,-0.242 0.41,-0.601 0.41,-1.077 z m 2.047,0.844 c 0,-0.333 0.064,-0.611 0.19,-0.833 0.126,-0.222 0.297,-0.403 0.512,-0.542 0.214,-0.139 0.466,-0.238 0.756,-0.298 0.29,-0.059 0.597,-0.089 0.922,-0.089 h 0.298 V 79.71 c 0,-0.484 -0.085,-0.817 -0.256,-1 -0.171,-0.182 -0.411,-0.274 -0.72,-0.274 -0.286,0 -0.524,0.062 -0.714,0.184 -0.19,0.123 -0.341,0.232 -0.452,0.327 l -0.405,-0.643 c 0.063,-0.063 0.145,-0.135 0.244,-0.214 0.099,-0.079 0.22,-0.155 0.363,-0.226 0.143,-0.071 0.305,-0.131 0.488,-0.179 0.183,-0.048 0.389,-0.071 0.619,-0.071 0.587,0 1.031,0.163 1.333,0.488 0.301,0.325 0.452,0.849 0.452,1.571 v 2.606 c 0,0.246 0.008,0.486 0.024,0.72 0.016,0.234 0.032,0.391 0.048,0.47 H 90.716 L 90.68,82.838 h -0.024 c -0.032,0.071 -0.079,0.153 -0.143,0.244 -0.063,0.091 -0.143,0.175 -0.238,0.25 -0.095,0.075 -0.21,0.141 -0.345,0.196 -0.135,0.055 -0.294,0.083 -0.476,0.083 -0.214,0 -0.414,-0.04 -0.601,-0.119 -0.187,-0.079 -0.349,-0.19 -0.488,-0.333 -0.139,-0.143 -0.246,-0.311 -0.321,-0.506 -0.076,-0.192 -0.114,-0.404 -0.114,-0.635 z m 1.726,0.774 c 0.135,0 0.254,-0.02 0.357,-0.06 0.103,-0.04 0.192,-0.087 0.268,-0.143 0.075,-0.055 0.139,-0.117 0.19,-0.185 0.051,-0.067 0.097,-0.125 0.137,-0.173 V 80.97 l -0.309,0.012 c -0.46,0.016 -0.809,0.095 -1.047,0.238 -0.238,0.143 -0.357,0.373 -0.357,0.69 0,0.294 0.067,0.514 0.202,0.66 0.134,0.149 0.321,0.222 0.559,0.222 z m 7.354,0.678 h -0.881 v -0.643 h -0.024 c -0.024,0.048 -0.075,0.117 -0.155,0.208 -0.079,0.091 -0.181,0.179 -0.303,0.262 -0.123,0.083 -0.272,0.157 -0.446,0.22 -0.174,0.063 -0.369,0.095 -0.583,0.095 -0.254,0 -0.482,-0.038 -0.684,-0.113 -0.202,-0.075 -0.375,-0.196 -0.518,-0.363 -0.143,-0.167 -0.252,-0.383 -0.327,-0.649 -0.075,-0.266 -0.113,-0.593 -0.113,-0.982 v -3.748 h 0.964 v 3.677 c 0,0.476 0.077,0.815 0.232,1.018 0.155,0.202 0.395,0.303 0.72,0.303 0.278,0 0.512,-0.069 0.702,-0.208 0.19,-0.139 0.341,-0.276 0.452,-0.41 v -4.379 h 0.964 z m 8.056,-5.712 -1.737,5.712 h -0.857 l -0.583,-1.999 c -0.087,-0.286 -0.161,-0.551 -0.22,-0.797 -0.06,-0.246 -0.097,-0.48 -0.113,-0.702 h -0.024 c -0.016,0.222 -0.06,0.46 -0.131,0.714 -0.071,0.254 -0.155,0.52 -0.25,0.797 l -0.655,1.987 h -0.821 l -1.797,-5.712 h 1.035 l 0.857,3.237 c 0.079,0.301 0.149,0.581 0.208,0.839 0.059,0.258 0.093,0.502 0.101,0.732 h 0.024 c 0.024,-0.23 0.073,-0.47 0.149,-0.72 0.075,-0.25 0.161,-0.522 0.256,-0.815 l 0.619,-1.868 -0.428,-1.404 h 1 l 0.869,3.153 c 0.087,0.325 0.167,0.631 0.238,0.916 0.071,0.286 0.111,0.532 0.119,0.738 h 0.024 c 0.016,-0.206 0.056,-0.454 0.119,-0.744 0.063,-0.289 0.139,-0.593 0.226,-0.91 l 0.845,-3.153 h 0.927 z m 4.475,1.928 c 0,0.246 -0.008,0.458 -0.024,0.637 -0.016,0.179 -0.032,0.335 -0.048,0.47 h -2.916 c 0.032,0.674 0.177,1.17 0.434,1.487 0.258,0.317 0.629,0.476 1.113,0.476 0.167,0 0.317,-0.02 0.452,-0.06 0.135,-0.04 0.252,-0.087 0.351,-0.143 0.099,-0.056 0.182,-0.111 0.25,-0.167 0.067,-0.055 0.117,-0.099 0.149,-0.131 l 0.357,0.678 c -0.04,0.04 -0.099,0.097 -0.178,0.173 -0.079,0.075 -0.186,0.151 -0.321,0.226 -0.135,0.075 -0.301,0.141 -0.5,0.196 -0.198,0.055 -0.432,0.083 -0.702,0.083 -0.357,0 -0.68,-0.06 -0.97,-0.178 -0.29,-0.119 -0.535,-0.303 -0.738,-0.553 -0.203,-0.25 -0.359,-0.567 -0.47,-0.952 -0.111,-0.385 -0.167,-0.847 -0.167,-1.386 0,-0.508 0.057,-0.946 0.173,-1.315 0.115,-0.369 0.272,-0.672 0.47,-0.91 0.198,-0.238 0.428,-0.414 0.69,-0.53 0.262,-0.115 0.543,-0.173 0.845,-0.173 0.547,0 0.976,0.173 1.285,0.518 0.309,0.345 0.465,0.864 0.465,1.554 z m -1.809,-1.285 c -0.341,0 -0.615,0.143 -0.821,0.428 -0.206,0.285 -0.325,0.698 -0.357,1.238 h 2.083 c 0.008,-0.04 0.014,-0.097 0.018,-0.173 0.004,-0.075 0.006,-0.157 0.006,-0.244 0,-0.397 -0.079,-0.704 -0.238,-0.922 -0.16,-0.218 -0.39,-0.327 -0.691,-0.327 z m 5.557,0.512 c -0.063,-0.071 -0.179,-0.169 -0.345,-0.292 -0.167,-0.123 -0.385,-0.184 -0.655,-0.184 -0.254,0 -0.448,0.06 -0.583,0.178 -0.135,0.119 -0.202,0.262 -0.202,0.428 0,0.214 0.062,0.391 0.185,0.529 0.123,0.139 0.311,0.288 0.565,0.446 l 0.357,0.214 c 0.389,0.23 0.694,0.478 0.916,0.744 0.222,0.266 0.333,0.609 0.333,1.029 0,0.452 -0.157,0.833 -0.47,1.142 -0.313,0.309 -0.764,0.464 -1.351,0.464 -0.23,0 -0.432,-0.024 -0.607,-0.071 -0.175,-0.047 -0.327,-0.103 -0.458,-0.167 -0.131,-0.063 -0.24,-0.133 -0.327,-0.208 -0.087,-0.075 -0.159,-0.145 -0.214,-0.208 l 0.464,-0.762 c 0.048,0.048 0.105,0.103 0.173,0.167 0.067,0.063 0.149,0.125 0.244,0.184 0.095,0.06 0.202,0.109 0.321,0.149 0.119,0.04 0.258,0.06 0.416,0.06 0.286,0 0.504,-0.063 0.655,-0.19 0.151,-0.127 0.226,-0.282 0.226,-0.464 0,-0.135 -0.018,-0.252 -0.053,-0.351 -0.036,-0.099 -0.089,-0.188 -0.161,-0.268 -0.071,-0.079 -0.159,-0.155 -0.262,-0.226 -0.103,-0.071 -0.222,-0.151 -0.357,-0.238 l -0.357,-0.226 c -0.357,-0.23 -0.637,-0.472 -0.839,-0.726 -0.202,-0.254 -0.303,-0.579 -0.303,-0.976 0,-0.214 0.042,-0.411 0.125,-0.589 0.083,-0.178 0.2,-0.333 0.351,-0.464 0.151,-0.131 0.327,-0.234 0.53,-0.309 0.202,-0.075 0.418,-0.113 0.648,-0.113 0.222,0 0.412,0.022 0.571,0.065 0.159,0.044 0.296,0.099 0.411,0.167 0.115,0.067 0.21,0.135 0.286,0.202 0.075,0.068 0.137,0.125 0.184,0.173 z m 5.367,0.773 c 0,0.246 -0.008,0.458 -0.024,0.637 -0.016,0.179 -0.032,0.335 -0.048,0.47 h -2.916 c 0.032,0.674 0.176,1.17 0.434,1.487 0.258,0.317 0.629,0.476 1.113,0.476 0.167,0 0.317,-0.02 0.452,-0.06 0.135,-0.04 0.252,-0.087 0.351,-0.143 0.099,-0.056 0.182,-0.111 0.25,-0.167 0.067,-0.055 0.117,-0.099 0.149,-0.131 l 0.357,0.678 c -0.04,0.04 -0.099,0.097 -0.179,0.173 -0.079,0.075 -0.186,0.151 -0.321,0.226 -0.135,0.075 -0.301,0.141 -0.5,0.196 -0.198,0.055 -0.432,0.083 -0.702,0.083 -0.357,0 -0.68,-0.06 -0.97,-0.178 -0.29,-0.119 -0.535,-0.303 -0.738,-0.553 -0.203,-0.25 -0.359,-0.567 -0.47,-0.952 -0.111,-0.385 -0.167,-0.847 -0.167,-1.386 0,-0.508 0.058,-0.946 0.173,-1.315 0.115,-0.369 0.272,-0.672 0.47,-0.91 0.198,-0.238 0.428,-0.414 0.69,-0.53 0.262,-0.115 0.543,-0.173 0.845,-0.173 0.547,0 0.976,0.173 1.285,0.518 0.311,0.346 0.466,0.864 0.466,1.554 z m -1.809,-1.285 c -0.341,0 -0.615,0.143 -0.821,0.428 -0.206,0.285 -0.325,0.698 -0.357,1.238 h 2.083 c 0.008,-0.04 0.014,-0.097 0.018,-0.173 0.004,-0.075 0.006,-0.157 0.006,-0.244 0,-0.397 -0.079,-0.704 -0.238,-0.922 -0.159,-0.218 -0.389,-0.327 -0.691,-0.327 z m 6.212,5.069 v -3.677 c 0,-0.484 -0.081,-0.831 -0.244,-1.041 -0.163,-0.21 -0.411,-0.315 -0.744,-0.315 -0.286,0 -0.524,0.071 -0.714,0.214 -0.19,0.143 -0.341,0.282 -0.452,0.416 v 4.403 h -0.964 v -5.712 h 0.881 v 0.643 h 0.024 c 0.024,-0.048 0.075,-0.117 0.155,-0.208 0.079,-0.091 0.183,-0.178 0.309,-0.262 0.126,-0.084 0.278,-0.157 0.452,-0.22 0.174,-0.063 0.373,-0.095 0.595,-0.095 0.254,0 0.484,0.038 0.69,0.113 0.206,0.075 0.381,0.196 0.524,0.363 0.143,0.167 0.254,0.383 0.333,0.648 0.079,0.266 0.119,0.593 0.119,0.982 v 3.748 z"
   id="path65" />
	</g>
</g>
</svg>
